<svg xmlns="http://www.w3.org/2000/svg" viewBox="0 0 74.79 233.96">
    <defs>
        <style>
            .cls-1{fill:#fce5db}.cls-2{fill:#82411d}.cls-3{fill:#974b22}.cls-4{fill:#171d26}.cls-5{fill:#212a38}.cls-6{fill:#382360}.cls-7{fill:#fff1ea}.cls-8{fill:#070606}.cls-9{fill:#e6d25d}.cls-10{fill:#edde70}.cls-11{fill:#472970}
        </style>
    </defs>
    <title>
        person_armsonhips
    </title>
    <g id="Layer_2" data-name="Layer 2">
        <g id="Layer_1-2" data-name="Layer 1">
            <path d="M26.59,101.73s.52,4.86,2.6,3.12,2.26.69,2.08,2.08-2.43,4.68-3.64,5.2-7.29-2.78-7.29-2.78l2.26-8.67Z" class="cls-1"/>
            <path d="M55.21,212s0,8.93,5.72,11.16,8.06,1.21,11.47,4.3,2,5.27,2,5.27l-32,.16s-.64-4.06-.12-6.22,1.84-12.91,3.1-12S55.21,212,55.21,212Z" class="cls-2"/>
            <path d="M37.29,213.08s0,8.93,5.72,11.16,8.06,1.21,11.47,4.3,2,5.27,2,5.27l-32,.16s-.64-4.06-.12-6.22,1.84-12.91,3.1-12S37.29,213.08,37.29,213.08Z" class="cls-3"/>
            <path d="M58.58,111.14s1,12.16,2.8,29.94c1.79,18-3.38,78.5-3.38,78.5l-16.17.84L40,144l-1.54-30.43Z" class="cls-4"/>
            <path d="M25,113.76s-1.3,17.4-1.3,26.26.24,37.77.24,37.77l.21,41.77,15,.5L44,141.32s7.49-24.08,2.46-26.7S25,113.76,25,113.76Z" class="cls-5"/>
            <path id="Body" d="M44.45,53.41l11.1.44c5,4.07,4.22,19,4.28,21.46.27,11.27-.05,32.94-.88,37.31,0,0-19.32,7.25-34.51,2.1l-3.09-44.1c-1.08-2.75-5.78-8.33-3-9.43l16.09-6.43Z" class="cls-6"/>
            <path id="Neck" d="M43.39,45.92l1.16,7.55s.48,10.77-11.88,1.8l-1.36-10Z" class="cls-1"/>
            <path d="M24.74,110.69s-1.92.48-2.1,1-3.17,4.9-2.47,5.42,3.68.52,4.49.33,3.43-6.63,3.43-6.63Z" class="cls-1"/>
            <path d="M23.15,109.35s2.37,2.81,1.81,4.41-1.63,2.87-1.25,3.62,7.51-1.89,7.64-4.36,0-5.93-4.23-7.51S23.15,109.35,23.15,109.35Z" class="cls-7"/>
            <path id="Face" d="M13.45,23.94c-.76,11.6,8.5,26.59,21.93,27.3S55,42.31,56.51,30.91C58.26,17.58,49.64,2,36.22,1.34S14.34,10.53,13.45,23.94Z" class="cls-7"/>
            <ellipse id="Eye_R" cx="29.8" cy="31.19" class="cls-8" data-name="Eye R" rx="2.23" ry="2.91" transform="translate(-4.51 5.05) rotate(-9)"/>
            <ellipse id="Eye_L" cx="47.75" cy="29.24" class="cls-8" data-name="Eye L" rx="2.23" ry="2.91" transform="matrix(0.99, -0.16, 0.16, 0.99, -3.99, 7.83)"/>
            <path d="M53.49,10C56,13.32,56,16.44,56.94,23a28.65,28.65,0,0,1-.26,5.73c-.4-.64-.38-1.45-.76-2.11-.57-3-3.58-12.16-3.58-12.16S51,6.76,53.49,10Z" class="cls-9"/>
            <path d="M20.12,21.61c-.68.93-1.53,1.93-2.24,6.51-.41,3,.81,9.77-.2,12.41a49.9,49.9,0,0,1-4.32-13c-.88-5.88-3.74-10.75,4.8-20.34S37.49.37,41.3.38c5,0,14.45,2.5,14.45,2.5.46,8.07-.53,11.27-2.68,12.4C34,21.57,21,20.41,20.12,21.61Z" class="cls-10"/>
            <path d="M25,58.57s-6.76,2.2-8.23,3.53S1.82,84,.49,87.35A6.79,6.79,0,0,0,2,94.7c1.18,1,20.12,17.18,20.12,17.18l6.08-7L13.63,89.29S26.79,75.46,27.81,67.82,25,58.57,25,58.57Z" class="cls-11"/>
            <path d="M53.05,53.83a6.58,6.58,0,0,1,3.82.17c2.43.69,16.83,18.56,17.87,21.69s-14.05,29.84-14.05,29.84L54.44,101l7.11-20.82-9-11.28Z" class="cls-6"/>
        </g>
    </g>
</svg>
