<?xml version="1.0" encoding="UTF-8"?>
<svg width="241px" height="66px" viewBox="0 0 241 66" version="1.1" xmlns="http://www.w3.org/2000/svg" xmlns:xlink="http://www.w3.org/1999/xlink">
    <!-- Generator: Sketch 52.4 (67378) - http://www.bohemiancoding.com/sketch -->
    <title>Artboard</title>
    <desc>Created with Sketch.</desc>
    <defs>
        <path d="M206.312145,39.1944741 C206.590628,38.915644 206.96768,38.6137521 207.443304,38.2887964 C208.478496,37.5690611 209.801766,36.4945934 211.413152,35.0653611 C213.024537,33.6361287 214.008108,32.8735078 214.363892,32.7774755 C214.601081,32.713454 214.82557,32.7136178 215.037366,32.7779671 C215.137034,32.8082492 215.234809,32.8447599 215.330692,32.8875005 C215.615659,33.0693417 215.750645,33.3416971 215.735653,33.7045749 L215.695908,33.8353891 C215.586136,34.1966873 215.116562,34.734439 214.287174,35.4486602 L214.927923,38.3786566 C215.418457,41.4671565 215.446072,43.7277397 215.010768,45.1604738 C214.916137,45.4719378 214.799824,45.7427881 214.661826,45.973033 C216.185436,45.0342595 217.209496,44.2839405 217.734037,43.7220535 C218.238548,43.1812983 218.671447,42.9658101 219.032745,43.0755825 L219.070121,43.0869382 C219.436307,43.2254128 219.643047,43.4855483 219.690348,43.8673524 C219.703433,44.0482399 219.683478,44.2258909 219.630485,44.4003107 C219.573706,44.5871891 219.479553,44.7627091 219.348023,44.9268759 C219.081177,45.2676682 218.634316,45.7306696 218.007424,46.3158941 C217.380532,46.9011186 216.369012,47.5429782 214.972835,48.2414923 C213.576657,48.9400064 212.133282,49.1444671 210.642666,48.8548805 C210.332305,48.8014102 210.040084,48.7330382 209.765996,48.6497627 C208.731936,48.3355868 207.979709,47.855284 207.509294,47.20884 C206.9072,46.4135193 206.643384,45.7141816 206.717837,45.1108059 C206.733455,44.9250303 206.763975,44.7573937 206.809398,44.607891 C206.907814,44.2839685 207.064497,44.0594049 207.279452,43.9341933 C207.498192,43.7965232 207.738374,43.7674338 208.000003,43.8469241 C208.074755,43.8696356 208.160071,43.9023611 208.255954,43.9451017 C208.615672,44.1496544 208.805931,44.4864327 208.826735,44.9554467 C208.847539,45.4244607 208.948972,45.7512619 209.131037,45.9358601 C209.313102,46.1204583 209.577209,46.2925581 209.923366,46.4521647 C209.969415,46.4797642 210.017356,46.5011342 210.06719,46.5162752 C210.403571,46.618477 210.881251,46.6139168 211.500245,46.5025943 C212.144155,46.3988424 212.632655,45.7987989 212.965757,44.7024458 L213.067958,44.3660664 C213.399331,43.0514502 213.197538,40.6699047 212.462572,37.2213584 C210.054465,39.0967634 208.474624,40.3025542 207.72302,40.838752 C207.549605,41.1906015 206.864193,41.8348191 205.666768,42.7714222 C204.421363,43.7455537 203.218507,44.4787151 202.058165,44.9709287 C200.897823,45.4631422 199.940109,45.6632724 199.184994,45.5713254 C198.872211,45.5345863 198.583064,45.4835493 198.317546,45.4182128 C197.900303,45.3155412 197.531886,45.1779524 197.212284,45.0054423 C196.649142,44.7327757 196.118278,44.2199854 195.619677,43.4670559 C195.121076,42.7141264 194.896288,41.7067649 194.945305,40.4449412 C194.994322,39.1831175 195.180051,38.1694997 195.502497,37.4040574 L193.57179,36.6674849 C191.888923,40.1823102 190.864188,42.1124863 190.497553,42.458071 C190.130919,42.8036556 189.75494,42.9692634 189.369604,42.9548992 C189.154859,42.9556939 188.977949,42.9389796 188.838868,42.9047558 C188.725075,42.8767544 188.634915,42.834455 188.568386,42.7778563 C188.419574,42.6741912 188.355761,42.4975791 188.376943,42.2480144 L188.38161,42.2290489 C188.419444,42.0752987 188.615236,41.5983227 188.968988,40.7981166 C188.093474,41.2607562 187.160394,41.5839013 186.169738,41.7675569 C184.84777,42.0119684 183.816285,42.0613433 183.075253,41.9156834 C182.947489,41.8905696 182.833759,41.8615794 182.734059,41.828712 C181.972277,41.586083 181.428465,41.2303793 181.102605,40.7615902 C180.776745,40.2928011 180.582772,39.7437835 180.520681,39.1145209 C180.458591,38.4852583 180.501521,37.760537 180.649472,36.940335 L180.653239,36.9211705 C180.792498,36.2127026 181.634016,33.9965852 183.177811,30.2727674 C182.671165,30.5246712 182.088478,30.7891564 181.429746,31.0662241 C180.947885,32.9422956 180.508568,34.3638573 180.111784,35.3309518 C179.714999,36.2980463 179.209285,37.1366775 178.594627,37.8468706 C177.979969,38.5570637 177.164414,39.1808291 176.147938,39.7181855 C175.131462,40.2555419 173.966673,40.424715 172.653535,40.2257097 C171.327524,40.0247534 170.325917,39.6820045 169.648685,39.1974526 C168.971452,38.7129007 168.487147,38.0633442 168.195755,37.2487636 C167.904362,36.434183 167.812328,35.4555783 167.919649,34.31292 C167.952433,33.922801 167.995163,33.5539494 168.04784,33.2063541 C168.149294,32.5369114 168.286049,31.9386757 168.45811,31.4116292 C168.698841,30.605259 169.066942,29.7622344 169.562424,28.8825301 C170.057906,28.0028258 170.891511,27.1513318 172.063265,26.3280225 C173.235018,25.5047133 174.153267,24.9854044 174.818039,24.7700804 C175.342366,24.6124894 175.759009,24.5571071 176.067983,24.6039319 C176.145226,24.6156381 176.215056,24.6328054 176.277475,24.6554345 C176.574742,24.7795027 176.694692,25.074238 176.637329,25.5396494 C177.568166,25.2197821 178.237023,25.064344 178.643918,25.0733304 C178.828054,25.074897 179.0038,25.0883618 179.171161,25.1137253 C179.377143,25.1449418 179.568298,25.1870805 179.74463,25.2401428 C180.082471,25.3571901 180.408596,25.6601248 180.723016,26.1489558 C181.037437,26.6377869 181.30249,27.5175035 181.518184,28.7881319 C182.452923,28.4425168 183.231801,28.0173184 183.854839,27.5125238 C184.166772,27.2597913 184.429514,27.0648028 184.643066,26.9275572 C188.248365,20.112877 190.49641,16.2285565 191.387266,15.2744829 C192.303326,14.2934167 193.011193,13.6794929 193.510887,13.432693 C194.01058,13.1858931 194.616683,13.0728082 195.329212,13.0934349 C195.633115,13.100091 195.912826,13.1285323 196.168354,13.1787599 C196.500541,13.2440558 196.78686,13.3401453 197.02732,13.4670313 C197.457135,13.7107579 197.765898,14.0302118 197.953619,14.4254026 C198.14134,14.8205934 198.175037,15.3580114 198.05471,16.0376727 L198.032108,16.1526599 C197.896493,16.8425863 197.607189,17.7743242 197.164185,18.9479015 C196.690825,20.2084024 195.999814,21.47918 195.09113,22.7602723 C194.182445,24.0413647 192.974436,25.3432179 191.467065,26.6658709 C189.959693,27.9885239 188.060866,29.0749681 185.770524,29.9252362 C184.029182,33.8559111 183.074394,36.2492225 182.906132,37.1052423 L182.875995,37.2585585 C182.804263,37.9610418 182.84817,38.4971493 183.007717,38.866897 C183.167264,39.2366447 183.494917,39.476875 183.990686,39.5875952 L184.00985,39.5913622 C184.50813,39.689306 185.30451,39.5870831 186.399015,39.2846905 C187.519072,38.9873206 188.526716,38.4854017 189.421978,37.7789187 C190.074655,37.2638689 190.564515,36.8684578 190.891568,36.5926796 C191.21682,35.8930229 191.573599,35.1288557 191.961903,34.3001776 C194.333817,29.2385141 196.28866,25.4085132 197.826489,22.8100601 C199.364319,20.211607 200.627875,18.3871298 201.617195,17.3365738 C202.606514,16.2860178 203.439315,15.6126489 204.115621,15.316447 C204.791928,15.0202451 205.476019,14.9103412 206.167915,14.9867319 C206.322751,15.0114233 206.482351,15.0439917 206.646719,15.0844381 C207.139825,15.2057773 207.584301,15.4157188 207.980163,15.7142688 C208.512193,16.1133726 208.79525,16.6523441 208.829343,17.3311994 C208.840266,17.7227576 208.786615,18.158761 208.668387,18.6392226 C208.581272,18.993247 208.461093,19.3726525 208.307846,19.7774505 C207.926087,20.7294374 207.073147,21.9342153 205.749001,23.3918203 C204.424855,24.8494253 203.169307,25.8512123 201.982321,26.3972113 C200.795334,26.9432104 198.951102,28.0213891 196.449567,29.63178 C198.137735,29.2560401 199.362221,29.0343955 200.123062,28.9668397 C200.883903,28.8992838 201.583517,28.9306432 202.221926,29.0609188 L202.411581,29.1075875 C202.967905,29.2444829 203.467722,29.4747466 203.911047,29.7983854 C204.398725,30.1597568 204.697338,30.6355105 204.806896,31.2256611 C204.916454,31.8158116 204.950447,32.467814 204.908876,33.1816879 C204.872336,33.5481573 204.812064,33.9020771 204.72806,34.2434577 C204.640945,34.5974821 204.5301,34.938957 204.395521,35.2678926 C204.094853,35.9448287 203.598115,36.5466882 202.905293,37.0734891 C202.212471,37.60029 201.498195,37.8737325 200.762443,37.8938247 C200.026691,37.9139169 199.022374,37.8947382 197.749462,37.836288 C197.178909,39.8279731 197.095421,41.1617501 197.498995,41.837659 C197.902569,42.5135679 198.413293,42.9174816 199.03118,43.0494121 C199.649068,43.1813427 200.468001,43.0275171 201.488005,42.5879309 C202.508008,42.1483446 203.454899,41.5835047 204.328704,40.8933943 C205.20251,40.2032838 205.735292,39.7410327 205.927066,39.506627 C206.042666,39.3653287 206.171025,39.2612781 206.312145,39.1944741 Z M126.824035,33.448892 C126.767255,33.5153251 126.709179,33.5830032 126.649808,33.6519262 C125.623665,34.8431534 124.393421,35.7386422 122.959039,36.3384195 C121.718478,36.8564421 120.720673,37.1224924 119.965592,37.1365783 C119.835406,37.1390069 119.718118,37.1346834 119.613727,37.1236076 C118.81789,37.0472916 118.211234,36.814428 117.793739,36.4250098 C117.385753,36.0444598 117.084699,35.5624281 116.89057,34.9789008 C116.357832,35.7876209 115.835896,36.3306262 115.324753,36.6079263 C114.5901,37.0064834 113.938514,37.2538183 113.369976,37.3499383 C113.266669,37.3685966 113.169512,37.3804004 113.0785,37.38535 C112.597437,37.411512 112.108251,37.2881565 111.610926,37.0152798 C111.006759,36.696053 110.360963,35.8509776 109.673519,34.4800284 C109.08381,35.3857884 108.528657,36.0875369 108.008041,36.585295 C107.487425,37.0830532 106.774544,37.4021812 105.869375,37.5426888 C105.675764,37.5792984 105.48795,37.6025524 105.305926,37.6124515 C104.64284,37.6485127 104.082852,37.5420476 103.625946,37.293053 C103.034781,36.9731191 102.561197,36.4772767 102.20518,35.8055108 C101.849164,35.133745 101.595249,34.2412778 101.443428,33.1280824 C101.400455,32.8174561 101.369776,32.4931259 101.351392,32.1550821 C101.304725,31.2969708 101.338679,30.3627683 101.453256,29.3524464 C101.598626,27.9492456 101.963155,26.7395262 102.546853,25.723252 C103.130551,24.7069777 103.717462,23.8698427 104.307603,23.2118218 C104.897744,22.5538009 105.550134,22.0814833 106.264794,21.7948547 C106.800966,21.5831336 107.413587,21.4585373 108.102677,21.421062 C108.323705,21.4090416 108.551585,21.4031686 108.786322,21.4034428 C109.752689,21.4291288 110.632649,22.1441099 111.426228,23.5484075 C111.696392,22.2818616 111.977807,21.58196 112.270482,21.448682 C112.436676,21.3874832 112.604281,21.3522883 112.773303,21.3430962 C112.890318,21.3367325 113.014539,21.3430168 113.145971,21.3619493 C113.423955,21.4381124 113.582881,21.7228682 113.622752,22.2162251 L113.623812,22.2357276 C113.652096,22.755795 113.412044,24.2162837 112.90365,26.6172375 C112.396671,29.0441947 112.073603,30.776517 111.934437,31.8142564 C111.84331,32.53642 111.807646,33.0795172 111.827444,33.4435644 C111.836636,33.6125863 111.856709,33.7418941 111.887661,33.8314918 C111.982642,34.1392897 112.159655,34.3969819 112.418708,34.604576 C112.67776,34.8121701 112.963302,34.9074807 113.275343,34.8905108 C113.574381,34.8742479 113.987384,34.6757479 114.514364,34.295005 C115.041344,33.914262 115.616844,33.1070874 116.240881,31.873457 C116.42002,31.519327 116.583158,31.2069019 116.730296,30.9361813 C116.971608,29.2506674 117.446433,26.5362353 118.154776,22.7928576 C120.340124,14.9772616 121.776909,10.4933477 122.465174,9.3409814 C123.15344,8.18861511 123.715723,7.43907237 124.152043,7.09233066 C124.588362,6.74558896 125.156923,6.50708062 125.857744,6.37679849 C126.156201,6.31913818 126.435611,6.2878799 126.695984,6.2830227 C127.034469,6.27670834 127.334621,6.31017797 127.596451,6.38343257 C128.068036,6.53091322 128.437288,6.77797278 128.704218,7.12461869 C128.971148,7.47126459 129.117556,7.98945213 129.143446,8.67919684 L129.145632,8.79636395 C129.158746,9.49937016 129.072691,10.4711866 128.887465,11.7118426 C128.69092,13.0438718 128.2838,14.4319012 127.666092,15.8759724 C127.048384,17.3200437 126.142482,18.8476074 124.94836,20.4587095 C123.754237,22.0698116 122.12761,23.5326825 120.068429,24.8473662 C119.196269,29.0570949 118.768332,31.5980454 118.784603,32.4702938 L118.787518,32.6265166 C118.865725,33.3283085 119.021836,33.8430593 119.255855,34.1707844 C119.489874,34.4985095 119.860863,34.6641431 120.368833,34.6676902 L120.38836,34.667326 C120.896087,34.6578544 121.65293,34.3897878 122.658912,33.863118 C123.690931,33.3359625 124.569883,32.6326043 125.295795,31.7530221 C126.021707,30.87344 126.495715,30.2785639 126.717834,29.968376 C126.880083,29.7417963 127.062437,29.5686963 127.264898,29.4490735 C127.58287,27.7930926 128.059173,25.5246696 128.693809,22.6437917 C131.111173,14.8968155 132.680987,10.4577257 133.403299,9.32638912 C134.125611,8.19505253 134.709989,7.46260487 135.156451,7.12902417 C135.602913,6.79544347 136.178332,6.57399023 136.882724,6.46465782 C137.182768,6.4159203 137.462986,6.39300528 137.723388,6.39591209 C138.06191,6.39969093 138.360932,6.44209338 138.620461,6.52312071 C139.08744,6.68459401 139.449163,6.94255137 139.705641,7.29700053 C139.962118,7.65144969 140.093014,8.17377142 140.098331,8.86398138 L140.097023,8.98116158 C140.089174,9.68424629 139.974187,10.6530655 139.752059,11.8876484 C139.515893,13.2132265 139.067575,14.5885026 138.407094,16.0135178 C137.746612,17.4385331 136.795575,18.9384125 135.553956,20.5132012 C134.312336,22.0879899 132.642822,23.50172 130.545365,24.7544342 C129.548099,28.9362924 129.044605,31.4633566 129.034867,32.3357024 L129.033123,32.4919427 C129.090375,33.1957541 129.231072,33.7149299 129.455217,34.0494855 C129.679362,34.3840412 130.045249,34.5606606 130.552887,34.5793489 L130.572417,34.579567 C131.0802,34.5852352 131.844698,34.3398496 132.865933,33.8434027 C133.913208,33.3472466 134.812737,32.6704029 135.564548,31.8128515 C136.316358,30.9553001 136.807889,30.3748188 137.039156,30.0713902 C137.270423,29.7679616 137.536365,29.5658414 137.836989,29.4650235 C137.980792,29.4145419 138.117791,29.3900282 138.247992,29.3914816 C138.391213,29.3930803 138.527631,29.4206462 138.657251,29.4741799 C138.90347,29.5811021 139.063675,29.8107669 139.137871,30.1631813 C139.150019,30.2414472 139.155585,30.3261491 139.154567,30.4172897 C139.15137,30.7037317 139.050232,31.015119 138.851152,31.3514612 C138.585809,31.7912374 137.922548,32.5911674 136.861351,33.7512754 C135.800153,34.9113834 134.543761,35.7698 133.092136,36.3265511 C131.836685,36.8073617 130.831392,37.0435487 130.076227,37.0351189 C129.946026,37.0336655 129.82892,37.0258475 129.724904,37.0116647 C128.931696,36.9116584 128.332251,36.6608135 127.926551,36.2591226 C127.520852,35.8574317 127.230245,35.3528595 127.054722,34.7453906 C126.943061,34.3589449 126.866166,33.9267805 126.824035,33.448892 Z M65.9890807,40.0972376 C65.5694628,40.921916 65.1298789,41.4974888 64.6703229,41.8239654 C63.9889596,42.3080179 63.3718652,42.6319523 62.8190213,42.7957785 C62.7187103,42.8267308 62.6236786,42.8501384 62.5339235,42.8660022 C62.0595034,42.9498538 61.5590289,42.8862515 61.032485,42.6751933 C60.3942986,42.4309765 59.6515178,41.6697398 58.8041202,40.3914603 C58.3276736,41.3615919 57.8609844,42.1250366 57.4040389,42.6818174 C56.9470933,43.2385981 56.2777868,43.641179 55.3960992,43.8895723 C55.2082993,43.9492105 55.0246469,43.9948927 54.8451366,44.0266203 C54.1912063,44.1421995 53.6224772,44.1038833 53.1389322,43.9116707 C52.5135681,43.6651877 51.9837666,43.229927 51.5495119,42.6058757 C51.3009267,42.2486432 51.0768546,41.8155892 50.8772936,41.306709 C50.8200915,41.4243241 50.7608243,41.545552 50.699492,41.6703927 C50.004071,43.0859074 49.2799451,44.1249784 48.5270924,44.7876368 C47.8883933,45.3599518 47.2376569,45.7152987 46.5748638,45.8536883 C46.4474035,45.8803016 46.3249875,45.899211 46.207612,45.910417 C45.4114753,45.9835365 44.7720813,45.8676371 44.2894108,45.5627156 C43.8067403,45.257794 43.4143127,44.8276241 43.1121162,44.2721928 C42.8099197,43.7167614 42.5672893,43.032514 42.3842177,42.2194299 L42.3722417,42.1620731 C42.2019161,41.3463277 42.2159144,39.9800008 42.4142368,38.0630515 C42.6072366,36.1206102 42.7299257,34.9244608 42.7823078,34.4745673 C42.7981338,34.2318322 42.786087,34.0148728 42.7461669,33.8236824 C42.7115696,33.6579842 42.6541423,33.5103568 42.5738835,33.3807959 C42.3952972,33.0988434 42.0598427,32.9893152 41.5675098,33.0522079 L41.4527962,33.0761598 C40.9939394,33.171968 40.5126105,33.4786415 40.0087949,33.9961897 C39.4646406,34.5753674 38.4612295,36.1083766 36.9985315,38.5952635 C36.7184321,44.1340491 36.5626633,47.0829277 36.5312206,47.441988 C36.4997778,47.8010483 36.2801234,48.0231565 35.8722507,48.1083193 C35.451632,48.1961434 35.1435604,48.154056 34.9480267,47.9820557 C34.8013765,47.8530554 34.6987782,47.6483522 34.6402288,47.3679397 C34.6242607,47.2914635 34.6120046,47.2009121 34.6034599,47.0962826 C34.5591965,46.6931719 34.6527315,42.0447189 34.8840677,33.1507842 C33.8129832,33.6271563 32.9670674,34.003304 32.346295,34.2792384 C31.7255225,34.5551729 31.3161851,34.6173638 31.1182705,34.4658132 C30.9203558,34.3142626 30.7837568,34.0900556 30.7084694,33.7931854 C30.6331819,33.4963152 30.8051441,33.2209829 31.2243612,32.9671802 C31.6435783,32.7133774 31.9725179,32.5050299 32.21119,32.3421312 C32.4498621,32.1792326 33.3317036,31.6725449 34.8567409,30.8220529 C35.7351935,23.5621284 36.2926953,19.574986 36.5292631,18.8605061 C36.7658309,18.1460262 37.0661952,17.5778538 37.4303652,17.1559718 C37.7945352,16.7340897 38.3087791,16.3939406 38.9731122,16.1355142 C39.2556254,16.0233193 39.5243381,15.9406098 39.7792586,15.887383 C40.1106552,15.8181883 40.4117932,15.7952159 40.6826816,15.8184653 C41.1734745,15.8756094 41.582253,16.0496368 41.9090296,16.3405527 C42.2358061,16.6314685 42.4760893,17.1133581 42.6298862,17.786236 L42.6498461,17.8818306 C42.7882356,18.5446238 42.8165342,19.4764711 42.7347427,20.6774005 C42.6354431,21.9218906 42.326364,23.1968624 41.807496,24.5023539 C41.288628,25.8078455 40.619724,27.1113925 39.8007639,28.413034 C38.9818037,29.7146755 38.0595586,31.031215 37.0340007,32.3626919 L36.9413659,35.4547118 C38.4502859,32.998079 39.5243952,31.5966246 40.163726,31.2503067 C40.8030568,30.9039888 41.3903799,30.6749452 41.9257128,30.5631691 C42.4610457,30.4513929 42.9753269,30.4936542 43.4685717,30.6899542 C43.9618166,30.8862543 44.376725,31.4081662 44.7133096,32.2557057 C44.7553303,32.3932506 44.7936388,32.5448699 44.8282362,32.7105682 C45.0198525,33.6282818 44.9849152,35.0854405 44.7234233,37.0820879 C44.43546,39.2704863 44.3686582,40.7342982 44.5230157,41.4735675 L44.5589436,41.6456379 C44.7663859,42.3206164 45.0155631,42.7973236 45.3064826,43.0757738 C45.5974021,43.3542239 45.992734,43.4479246 46.4924902,43.3568784 L46.5116091,43.3528864 C46.9959579,43.2517556 47.5109718,42.851589 48.0566661,42.1523745 C48.5996991,41.4404139 49.0099075,40.6497838 49.2873037,39.7804603 C49.5646999,38.9111368 49.7836517,38.3034317 49.9441656,37.9573268 C49.9876683,37.8635251 50.0352604,37.7764418 50.0869419,37.6960768 C50.050494,37.247101 50.0303938,36.7784623 50.0266412,36.2901575 C50.0021284,34.8796596 50.2184604,33.6348694 50.6756439,32.5557494 C51.1328274,31.4766294 51.6147536,30.5749608 52.121437,29.8507166 C52.6281204,29.1264723 53.2189444,28.5790926 53.8939266,28.2085611 C54.4007299,27.9338679 54.9939099,27.7364685 55.6734846,27.6163568 C55.8914613,27.5778304 56.1169789,27.5445824 56.3500441,27.5166119 C57.3124818,27.4258418 58.272073,28.0297556 59.2288467,29.3283715 C59.3446621,28.0385211 59.5398236,27.3098451 59.814337,27.1423217 C59.9719601,27.0615717 60.1341133,27.0064669 60.3008014,26.9770055 C60.4162009,26.9566092 60.5402758,26.947902 60.67303,26.9508837 C60.9581592,26.9930475 61.1501909,27.2566133 61.2491309,27.7415893 L61.2525303,27.7608224 C61.3431806,28.273709 61.2805933,29.7524702 61.0647663,32.1971506 C60.8534719,34.6674753 60.7411773,36.4260836 60.7278793,37.4730284 C60.7243019,38.20091 60.7542404,38.7443529 60.8176956,39.1033734 C60.847157,39.2700616 60.8826412,39.396015 60.9241493,39.4812377 C61.0554725,39.775372 61.2622047,40.0098946 61.5443522,40.1848125 C61.8264997,40.3597304 62.121435,40.4199933 62.4291669,40.3656031 C62.7240767,40.3134791 63.1101967,40.0667302 63.5875386,39.625349 C64.0648804,39.1839677 64.5390837,38.3134148 65.0101626,37.0136641 C65.0714762,36.8444939 65.130556,36.6842308 65.187402,36.5328746 C65.1727094,35.5187857 65.232424,34.0698082 65.3665463,32.1859255 C65.5820144,29.217984 65.9775929,26.0454913 66.5532937,22.6683523 C59.972447,23.6501376 56.5634825,24.0961824 56.3262978,24.0065 C56.0891132,23.9168177 55.9223863,23.6816864 55.8261121,23.3010992 C55.8036272,23.2386287 55.7885424,23.1816375 55.7808572,23.1301241 C55.734746,22.8210432 55.8186632,22.5452276 56.0326114,22.3026689 C56.2356025,22.07491 59.5630796,21.4797532 66.0151426,20.5171809 C66.3113451,20.472991 66.6278211,20.4323589 66.96458,20.3952834 C67.8062734,14.4771103 68.3376435,11.3765128 68.5587062,11.0933977 C68.7797688,10.8102827 69.1092275,10.6360656 69.547092,10.5707414 C69.9978349,10.5034958 70.3094032,10.5623319 70.4818061,10.7472515 L70.4933338,10.8245213 C70.5663433,11.3138994 70.1331954,14.3669313 69.1938772,19.9837087 L73.2312258,19.3813835 C74.1842251,19.2392071 74.819864,19.2200749 75.1381615,19.3239862 C75.4564589,19.4278975 75.6508635,19.6720644 75.7213809,20.0564941 L75.7271448,20.0951291 C75.7828625,20.4686018 75.6779922,20.7804554 75.4125305,21.0306992 C75.1818613,21.2494224 74.6479878,21.4212238 73.8108938,21.5461084 L73.3086399,21.6210388 L68.8713886,22.3225196 C68.0620495,28.6666106 67.6033354,33.0250069 67.4952408,35.3977689 C67.50503,35.4302375 67.5130288,35.4640352 67.5192374,35.4991621 C67.5441662,35.6402059 67.5445838,35.792191 67.5204903,35.955122 C67.5144262,36.0069301 67.4980201,36.0828319 67.4712717,36.1828276 C67.4663096,36.6100647 67.4793675,36.9352507 67.5104454,37.1583864 L67.5219731,37.2356562 C67.7102607,38.4977364 68.2225539,39.1519551 69.0588681,39.1983318 C69.2726072,39.2191045 69.5018179,39.2112385 69.7465069,39.1747338 C70.377547,39.08059 71.0396316,38.7975074 71.7327805,38.3254776 C72.6552481,37.713916 73.4285136,36.8744894 74.0526002,35.8071726 C74.6766868,34.7398558 75.0645154,34.0303384 75.2160976,33.678599 C75.3676797,33.3268595 75.6315538,33.0439437 76.0077276,32.8298429 C76.1417044,32.7571951 76.2730828,32.7112654 76.4018664,32.6920523 C76.6207987,32.6593902 76.8264596,32.7142793 77.0188554,32.8567211 C77.244693,33.0468339 77.3777836,33.2771097 77.4181309,33.5475554 L77.4411864,33.7020951 C77.4396268,34.0446179 77.3519052,34.449358 77.178019,34.9163274 C77.0041328,35.3832969 76.6161092,36.135629 76.0139367,37.1733465 C75.4117643,38.211064 74.5556467,39.2010816 73.4455585,40.1434291 C72.3902555,41.0117782 71.2959723,41.5304822 70.1626758,41.6995568 C70.0725272,41.7130059 69.9878584,41.7190551 69.9086669,41.7177046 C68.6775366,41.8487148 67.7768963,41.7461132 67.2067191,41.4098969 C66.6704668,41.093685 66.2645908,40.6561358 65.9890807,40.0972376 Z M36.21199,15.0197123 C36.9033148,15.1041794 37.3128272,15.4055864 37.4405393,15.9239422 C37.6149754,16.6319404 37.035523,17.5457849 35.7021649,18.665503 C34.3290452,19.4061196 32.8902588,19.9617578 31.3857627,20.3324344 L25.0094133,21.8028579 C21.4062083,22.6906128 19.2711615,23.6859967 18.6042089,24.7890395 C18.1754536,25.4981384 18.0623129,26.2635682 18.2647833,27.0853518 L18.3815926,27.5594553 C18.5217644,28.1283824 18.9711283,28.3193952 19.7296978,28.1324995 L21.5079294,27.5938035 C21.7952332,27.6168898 22.0238088,27.7281995 22.1936629,27.927736 L22.3805577,28.6863016 C22.5674535,29.4448711 21.6178826,30.081128 19.5318166,30.5950913 C18.5020673,30.6610563 17.4924875,30.3733927 16.503047,29.7320919 C16.0031956,29.0640385 15.6894185,28.4708428 15.5617064,27.952487 L15.468259,27.5732041 C14.9200314,25.348067 15.6923276,23.4480044 17.7851707,21.8729594 C19.4684974,20.9218115 21.0813489,20.2562368 22.6237735,19.8762154 L30.4938924,17.9371815 C33.1615283,17.2799314 34.6479534,16.6455056 34.9532123,16.033885 C35.3751884,15.4605591 35.7947768,15.1225049 36.21199,15.0197123 Z M28.1811005,22.4294922 L28.5603834,22.3360448 C29.058951,22.4545931 29.3580691,22.7161486 29.4577469,23.1207189 C29.5387351,23.4494324 29.1241873,24.6243745 28.2140913,26.6455806 C27.214399,29.9360172 27.1397418,33.3069305 27.9901175,36.7584216 C28.2961173,39.6332909 28.3836129,41.7573461 28.252607,43.1306511 C27.851341,45.9652115 26.9123091,48.1410307 25.4354833,49.6581738 C24.4504437,50.5043296 23.1614453,51.1236388 21.5684495,51.5161199 L21.1891666,51.6095673 C18.281317,52.3260011 16.1036668,51.9238235 14.6561507,50.4030224 C13.711601,49.5629176 13.153674,48.795199 12.9823529,48.0998436 L12.7487343,47.1516366 C12.3126442,45.3816411 12.9507268,43.4811208 14.6630013,41.4500185 C15.3534086,40.8776081 16.3497027,40.4309908 17.6519136,40.110153 C19.7619836,39.9657634 20.9369257,40.3803111 21.1767753,41.3538086 L21.2935845,41.8279122 C21.1847472,42.2570358 20.8521914,42.5401218 20.2959071,42.6771787 C19.3368836,42.377051 18.4844212,42.3188785 17.7384946,42.5026593 L17.5488532,42.5493831 C16.2592851,42.8671059 15.4663738,43.8670674 15.1700957,45.5492976 L15.378979,46.8053286 C15.5098061,47.3363273 16.0205521,48.0486199 16.9112325,48.9422278 C17.9102008,49.5677709 18.9280256,49.7528275 19.9647372,49.4974033 L20.2491993,49.4273177 C23.1444061,48.7139989 24.8310045,47.2591751 25.3090451,45.0628026 C25.6813654,44.2335053 25.8989442,42.9394663 25.9617879,41.1806467 C25.5506108,36.7358678 25.3169893,33.4744332 25.2609164,31.396245 C25.3094672,29.1984077 25.9425091,26.4609994 27.1600613,23.183938 C27.4741156,22.7713046 27.8144586,22.5198252 28.1811005,22.4294922 Z M37.3917777,28.9160242 C39.6950033,24.657433 40.7358709,21.3608045 40.514412,19.0260398 L40.4984441,18.949564 C40.4117413,18.6617282 40.2050757,18.5319599 39.8784411,18.5602553 L39.7637275,18.5842072 C38.4126492,18.8663089 37.6220071,22.3102135 37.3917777,28.9160242 Z M58.8686982,32.2282841 C58.6293699,31.3978851 58.2845178,30.8307666 57.8341314,30.5269117 C57.383745,30.2230567 56.913417,30.0681797 56.4231331,30.0622761 C56.3182896,30.0675841 56.2081697,30.080436 56.0927702,30.1008323 C55.6696388,30.1756188 55.1741444,30.4020316 54.606272,30.7800775 C53.9003974,31.2750735 53.3198164,32.0487312 52.8645115,33.1010738 C52.4092066,34.1534163 52.166783,35.1383678 52.1372335,36.0559578 C52.1076839,36.9735478 52.1582722,37.8769601 52.2889997,38.7662219 L52.3331915,39.0162529 C52.4669007,39.7727605 52.6778676,40.3304863 52.9660984,40.6894469 C53.2762164,41.09743 53.6202332,41.3605782 53.9981592,41.4788995 C54.12489,41.522614 54.2715972,41.5297405 54.4382854,41.5002791 C54.7460173,41.4458889 55.1061356,41.2764595 55.5186512,40.9919859 C56.1566578,40.561876 56.7879602,39.7759479 57.4125772,38.634178 C58.0371942,37.4924081 58.3965214,36.4768776 58.4905694,35.5875559 C58.5846175,34.6982342 58.7106591,33.5784881 58.8686982,32.2282841 Z M78.6730315,14.5635546 L78.4309294,13.6102478 C79.1367133,13.2821486 79.557905,12.8860073 79.6945172,12.4218122 C79.0490342,12.2037235 78.6506334,11.8156512 78.4993026,11.2575837 C78.4696046,11.1301398 78.4463631,11.0018585 78.4295773,10.872736 C78.3792201,10.4853685 78.4340968,10.149978 78.594209,9.86655439 C78.7975774,9.51185524 79.0466512,9.25626148 79.341438,9.09976544 C79.5862544,8.96289595 79.8894296,8.87096254 80.2509726,8.82396245 L80.4446553,8.79878396 C80.8999412,8.76585834 81.2955018,8.90482485 81.6313489,9.21568766 C81.967196,9.52655046 82.2076824,9.98767249 82.3528152,10.5990676 C82.3841918,10.7394238 82.4074333,10.867705 82.4225405,10.9839153 C82.4829692,11.4487563 82.4398423,11.8745312 82.2931587,12.2612528 C82.1082546,12.7579867 81.7625338,13.2296635 81.2559857,13.6762974 C80.7477591,14.1100191 79.9255191,14.4007329 78.7892412,14.5484475 L78.6730315,14.5635546 Z M87.3883066,22.9338382 C87.5816564,22.7822684 87.7883817,22.6947467 88.0084885,22.6712705 C88.1120682,22.6602229 88.2163368,22.6556491 88.3212975,22.6575489 C88.6546507,22.7136574 88.8852828,22.9116661 89.0132007,23.2515809 L89.0277006,23.3875285 C89.0677482,23.7630049 88.8454813,24.4414393 88.360893,25.4228519 L90.0950451,27.8699224 C91.7528141,30.5215743 92.6610897,32.5918482 92.8198991,34.0808063 C92.8544229,34.4044929 92.8531257,34.6992587 92.8160074,34.9651127 C93.8519884,33.5058576 94.501691,32.4151862 94.7651345,31.693066 C95.0183926,30.9982217 95.3327551,30.6307812 95.7082315,30.5907336 L95.7470736,30.5865908 C96.1382594,30.5710572 96.4301755,30.729793 96.6228308,31.0628031 C96.7055204,31.2242153 96.7565312,31.3955511 96.7758645,31.5768156 C96.7965788,31.7710275 96.7784509,31.9693793 96.7214804,32.1718769 C96.6089204,32.5898197 96.3783678,33.1905704 96.0298158,33.9741471 C95.6812638,34.7577238 95.0007476,35.7436516 93.988247,36.93196 C92.9757463,38.1202684 91.7268476,38.8721912 90.2415134,39.1877512 C89.9349172,39.2597364 89.6392014,39.3109187 89.3543573,39.3412996 C88.2797179,39.4559186 87.399651,39.3075356 86.7141302,38.8961461 C85.8492448,38.3991293 85.333258,37.8583612 85.1661546,37.2738256 C85.1079789,37.096704 85.0706059,36.9304609 85.0540345,36.7750913 C85.0181297,36.4384573 85.0746683,36.1705359 85.223652,35.9713191 C85.3712548,35.7591548 85.5810013,35.6385745 85.852898,35.6095745 C85.9305828,35.6012888 86.0219041,35.5980959 86.1268648,35.5999957 C86.5379028,35.6478185 86.8445781,35.8835475 87.0469,36.3071897 C87.2492219,36.730832 87.4702293,36.9920664 87.7099289,37.0909006 C87.9496286,37.1897348 88.2599738,37.2450223 88.640974,37.2567645 C88.6941448,37.2641882 88.7466244,37.2651381 88.7984142,37.2596143 C89.1479957,37.2223286 89.5859598,37.0315761 90.1123197,36.687351 C90.6645746,36.340364 90.8799369,35.5971934 90.7584132,34.4578167 L90.7211277,34.108237 C90.5127714,32.7686057 89.3969085,30.6549999 87.3735055,27.767356 C85.560317,31.0249191 84.4945694,32.8801655 84.1762309,33.3331509 C83.9259106,33.6872184 83.6518587,33.8801302 83.354067,33.9118921 C83.2634348,33.9215588 83.1772062,33.9111139 83.0953786,33.8805572 C82.6815787,33.8068396 82.4225496,33.5267451 82.3182836,33.0402653 C82.3011933,33.0028039 82.2912673,32.9711262 82.2885054,32.9452313 C82.2360293,32.4532277 82.5297657,31.7082451 83.1697234,30.7102611 C83.8416188,29.6433969 84.6401752,28.1374652 85.5654165,26.1924207 C86.4906578,24.2473763 87.0982817,23.161193 87.3883066,22.9338382 Z M110.719789,26.3839223 C110.58211,25.5307606 110.307997,24.9262707 109.897441,24.5704342 C109.486885,24.2145978 109.038608,24.0042579 108.552596,23.9394081 C108.447875,23.9320631 108.337009,23.9315724 108.219994,23.9379362 C107.790938,23.9612699 107.271802,24.1264219 106.66257,24.4333973 C105.902267,24.8398694 105.23282,25.5380537 104.654209,26.527971 C104.075598,27.5178884 103.716429,28.4665174 103.576694,29.3738864 C103.436958,30.2812554 103.378483,31.1841916 103.401269,32.0827221 L103.415057,32.3362537 C103.456775,33.1033531 103.599106,33.6824101 103.842054,34.073442 C104.100832,34.5157735 104.410689,34.8184009 104.771633,34.9813333 C104.892184,35.039978 105.036968,35.0647039 105.20599,35.0555118 C105.51803,35.0385419 105.895918,34.9136713 106.339664,34.6808965 C107.024785,34.3306736 107.746061,33.6264107 108.503514,32.5680866 C109.260967,31.5097625 109.739868,30.544842 109.940233,29.6732962 C110.140598,28.8017503 110.400447,27.7053034 110.719789,26.3839223 Z M121.000234,21.3918855 C123.97869,18.393088 125.806183,15.4809205 126.482768,12.6552955 C126.8095,11.3208377 126.967035,10.3411763 126.955377,9.71628185 C126.944934,9.15648061 126.79651,8.87925561 126.5101,8.88459853 L126.158599,8.89115571 C124.792128,8.94269326 123.07269,13.1095615 121.000234,21.3918855 Z M131.579766,21.3282668 C134.646294,18.4195913 136.559788,15.5631966 137.320306,12.7589968 C137.686673,11.4348721 137.873342,10.4603422 137.880318,9.83537803 C137.886568,9.27551428 137.746474,8.99398788 137.460032,8.9907904 L137.108492,8.98686623 C135.741092,8.99764568 133.898202,13.1114047 131.579766,21.3282668 Z M177.915142,8.14089205 C178.542652,8.44304453 178.833581,8.8600656 178.787939,9.39196776 C178.725598,10.1184683 177.883207,10.7976249 176.26074,11.4294582 C174.72245,11.6895208 173.181421,11.7533143 171.637607,11.6208405 L165.126944,10.9641492 C161.429575,10.6468802 159.0879,10.9033417 158.101849,11.7335416 C157.467959,12.2672416 157.114839,12.955711 157.04248,13.7989705 L157.000734,14.285464 C156.950639,14.869259 157.314782,15.1945484 158.093176,15.2613419 L159.9502,15.3226769 C160.214845,15.4368672 160.395526,15.6157282 160.492246,15.8592653 L160.425453,16.6376548 C160.35866,17.4160482 159.254989,17.7133994 157.114407,17.5297173 C156.118081,17.2612606 155.254497,16.6644149 154.52363,15.7391622 C154.26498,14.9459114 154.158477,14.2833449 154.204119,13.7514427 L154.237516,13.362248 C154.433443,11.0789606 155.775383,9.52787121 158.263374,8.70893313 C160.163074,8.34919533 161.904264,8.23723482 163.486997,8.37304824 L171.562789,9.06602718 C174.300139,9.3009176 175.911599,9.17782501 176.397218,8.69674571 C176.981056,8.28943833 177.487026,8.10415563 177.915142,8.14089205 Z M166.98993,24.4344649 C166.822391,24.4070197 166.641325,24.3849483 166.446727,24.3682499 C165.707253,24.3047961 164.775036,24.3554886 163.650048,24.520329 C163.08115,27.6472181 162.386663,30.1817323 161.566565,32.1239474 C160.22895,34.7666735 158.908312,36.4502762 157.604609,37.1748062 C156.105195,37.895611 154.512252,38.1836494 152.825733,38.0389302 L152.144642,37.9804862 C149.044042,37.7144255 147.051848,36.5633351 146.168,34.5271803 C145.599491,33.537447 145.35309,32.6015048 145.42879,31.7193256 L145.470535,31.2328321 C145.644198,29.2090093 146.867539,27.5170575 149.140595,26.156926 C150.17293,25.8534476 151.195038,25.7451258 152.206949,25.8319573 C154.456112,26.2732629 155.52446,27.1490503 155.412024,28.4593459 C155.361929,29.0431409 154.947691,29.3016378 154.169297,29.2348444 C153.266781,28.63465 152.413366,28.3000479 151.609026,28.231028 C150.233864,28.1130261 149.161662,28.8051342 148.392387,30.307373 L148.203248,31.3693095 C148.128662,32.2385155 148.410278,33.1448081 149.048106,34.0882147 C149.741167,34.9971545 150.74283,35.5078345 152.053126,35.6202702 C153.609912,35.7538572 155.073125,35.4546867 156.442807,34.7227496 C157.936313,33.7662003 159.146702,31.8444375 160.074012,28.9574035 C160.515231,27.6230456 160.864712,26.2154936 161.122465,24.7347051 C159.550821,24.926562 157.96901,25.0848702 156.376986,25.2096344 C155.811002,24.9519678 155.546939,24.6025949 155.584789,24.1615053 L155.601487,23.9669079 C155.67162,23.1495948 156.742227,22.6664467 158.813341,22.517449 C160.884454,22.3684513 161.923891,22.248548 161.931684,22.1577354 C162.143197,19.6928229 163.640021,16.7174833 166.422203,13.2316274 L167.364684,12.5283801 L168.240372,12.6035224 C168.817488,12.7314569 169.084334,13.0483972 169.040918,13.5543529 C169.013088,13.8786835 168.459807,14.61532 167.381058,15.7642843 C165.557912,17.9732847 164.463338,20.0683424 164.097303,22.0495205 C165.329416,21.8546662 166.308709,21.7884104 167.03521,21.850751 C167.268728,21.870789 167.481113,21.9086165 167.672371,21.9642346 C168.400713,22.1574206 168.836765,22.4823461 168.98054,22.9390209 C169.017961,23.1121257 169.029992,23.276515 169.016634,23.4321936 C168.993256,23.7046313 168.881294,23.9433264 168.680744,24.1482861 C168.421622,24.4266322 168.006656,24.5413126 167.435834,24.4923307 C167.293128,24.4800852 167.144495,24.4607968 166.98993,24.4344649 Z M179.120724,28.4445526 C179.052083,27.8546886 178.671148,27.5006472 177.977908,27.3824175 C177.781282,27.5501626 177.637322,27.8049024 177.546022,28.1466446 L177.537242,28.2045768 C177.490418,28.5135504 177.718043,28.7060794 178.220125,28.7821697 C178.218174,28.7950436 178.223635,28.8024559 178.236509,28.8044069 C178.751465,28.8824482 179.046201,28.762498 179.120724,28.4445526 Z M175.743138,26.7474253 C174.301247,26.9635036 173.151751,27.6617696 172.294618,28.8422444 C171.437485,30.0227192 170.863197,31.183485 170.571739,32.3245766 C170.429329,32.8297773 170.325933,33.2947901 170.261549,33.7196288 C170.179605,34.2603325 170.154427,34.7306144 170.186014,35.1304886 C170.231243,35.8748393 170.556965,36.5497479 171.163192,37.1552347 C171.606743,37.6175419 172.150358,37.8974671 172.794053,37.9950187 C173.000035,38.0262352 173.221815,38.0400917 173.459398,38.0365886 C174.385934,38.0058001 175.30408,37.6609699 176.213862,37.0020875 C177.123644,36.3432051 177.813203,35.3776953 178.282561,34.1055293 C178.648528,33.0810861 178.88321,32.227719 178.986615,31.5454024 C179.011978,31.3780417 179.028953,31.2225817 179.037541,31.0790178 C178.790986,31.0548221 178.551847,31.0251654 178.320116,30.9900468 C177.328826,30.8398174 176.626041,30.6542945 176.211741,30.4334726 C175.709275,30.1861196 175.408313,29.8474903 175.308847,29.4175746 C175.209381,28.9876589 175.183452,28.5721863 175.23106,28.1711444 L175.242766,28.0939014 C175.301297,27.7076845 175.468086,27.2588636 175.743138,26.7474253 Z M187.410916,26.7443991 C190.955392,24.4420806 193.356562,21.981424 194.614499,19.3623556 C195.215623,18.1269686 195.576453,17.2026549 195.696999,16.589387 C195.804988,16.0400012 195.718444,15.7376876 195.437363,15.6824373 L195.092401,15.6146304 C193.745855,15.3764885 191.185385,19.0863743 187.410916,26.7443991 Z M197.542908,26.8233964 C201.958409,24.4100927 204.866351,21.6929197 206.26682,18.6717958 C206.475274,17.824666 206.385081,17.3465619 205.996236,17.2374691 L205.958305,17.2281353 C204.441058,16.8547841 201.635954,20.0531724 197.542908,26.8233964 Z M194.582617,34.6031244 L194.867099,34.6731274 C195.426733,34.8510653 195.965739,35.0038129 196.484131,35.1313745 C199.897938,35.9714149 201.873274,35.5456687 202.410199,33.8541231 L202.484869,33.5506751 C202.696037,32.5835293 202.23362,31.7925811 201.097604,31.1778069 L200.813121,31.1078039 C197.472332,31.2243834 195.395518,32.3894786 194.582617,34.6031244 Z M220.318647,47.9017457 C220.83485,48.0823275 221.21281,48.421465 221.45254,48.9191683 C221.692269,49.4168717 221.721843,49.9238173 221.541261,50.4400202 C221.356379,50.9685137 221.016167,51.3495468 220.520614,51.583131 C220.02506,51.8167151 219.519189,51.8432159 219.002986,51.6626341 C218.486783,51.4820524 218.107748,51.1459875 217.865869,50.6544294 C217.62399,50.1628713 217.595491,49.6528532 217.780372,49.1243597 C217.960954,48.6081567 218.300092,48.2301962 218.797795,47.9904668 C219.295498,47.7507374 219.802444,47.721164 220.318647,47.9017457 Z M222.083087,43.4494857 C228.540838,31.6932167 232.005127,25.5561287 232.476057,25.0380376 C232.946987,24.5199464 233.468493,24.2713069 234.04059,24.2921115 C234.217566,24.2988437 234.385939,24.3301565 234.545716,24.3860508 C234.84069,24.4892404 235.068387,24.6861478 235.228814,24.9767788 C235.45317,25.4001307 235.472907,25.8760463 235.288025,26.4045398 C235.098845,26.9453239 233.02885,30.2698529 229.077979,36.3782267 C225.127108,42.4866005 222.990711,45.5671892 222.668724,45.6200854 C222.46226,45.6582158 222.279142,45.649334 222.119365,45.5934396 C221.996459,45.550444 221.8883,45.485018 221.794883,45.3971597 C221.546597,45.1999453 221.435029,44.947102 221.460176,44.638622 C221.461392,44.5562796 221.479198,44.4659475 221.513595,44.3676232 C221.603886,44.1095217 221.793714,43.8034789 222.083087,43.4494857 Z" id="path-1"></path>
        <filter x="-3.6%" y="-8.8%" width="107.2%" height="135.0%" filterUnits="objectBoundingBox" id="filter-2">
            <feOffset dx="0" dy="4" in="SourceAlpha" result="shadowOffsetOuter1"></feOffset>
            <feGaussianBlur stdDeviation="2" in="shadowOffsetOuter1" result="shadowBlurOuter1"></feGaussianBlur>
            <feColorMatrix values="0 0 0 0 0   0 0 0 0 0   0 0 0 0 0  0 0 0 0.5 0" type="matrix" in="shadowBlurOuter1"></feColorMatrix>
        </filter>
    </defs>
    <g id="Artboard" stroke="none" stroke-width="1" fill="none" fill-rule="evenodd">
        <path d="M12,54 C96,31.3333333 167.333333,31.3333333 226,54" id="Path-2"></path>
        <g id="That’s-all-Folks!">
            <use fill="black" fill-opacity="1" filter="url(#filter-2)" xlink:href="#path-1"></use>
            <use fill="#FFFFFF" fill-rule="evenodd" xlink:href="#path-1"></use>
        </g>
    </g>
</svg>