<?xml version="1.0" encoding="utf-8"?>
<!-- Generator: Adobe Illustrator 21.0.2, SVG Export Plug-In . SVG Version: 6.00 Build 0)  -->
<svg version="1.1" id="Layer_1" xmlns="http://www.w3.org/2000/svg" xmlns:xlink="http://www.w3.org/1999/xlink" x="0px" y="0px"
	 viewBox="0 0 965.4 346.9" style="enable-background:new 0 0 965.4 346.9;" xml:space="preserve">
<style type="text/css">
	.st0{fill:#F15A29;}
	.st1{fill:#FFFFFF;}
	.st2{fill:#414042;}
</style>
<g>
	<path class="st0" d="M379.3,187.3c-15,3.3-29.9,6.6-44.9,9.4v-48.8v-30.5c0-3.9,0-19.4-0.6-22.7c-5.5-49.3-47.6-87.5-98.6-87.5
		h-72.6c-52.6,0-95.8,41.6-99.2,93.1c0,2.2,0,15.5,0,17.2v30.5v48.8c-15-2.8-29.9-5.5-44.3-9.4c-8.3-2.2-15.5,3.3-15.5,11.6l0,0
		c0,1.7,0.6,3.3,1.1,5.5c0,0.6,0.6,1.1,0.6,2.2c30.5,77,105.8,131.9,193.3,131.9c88.1,0,163.4-54.8,193.3-131.9
		c0-0.6,0.6-1.1,0.6-1.7c0.6-1.7,1.1-3.3,1.1-5.5l0,0C394.3,190.6,387.6,185,379.3,187.3z"/>
	<path class="st1" d="M123.4,260.9l48.8-53.2c13.3-15,30.5-37.1,39.3-51c7.8-11.6,11.6-23.8,11.6-34.9c0-14.4-10-26-22.2-26
		s-20.5,10-20.5,24.4c0,2.2,0.6,4.4,1.1,8.3h-54.3c0.6-46,30.5-77.6,73.7-77.6s73.7,29.9,73.7,72.6c0,23.3-8.3,42.1-28.3,60.9
		l-32.1,31.6h62.6v44.3L123.4,260.9L123.4,260.9z"/>
	<path class="st2" d="M507.3,260.9v-68.7c0-15-0.6-16.1-2.8-21.6c-2.8-6.1-10-10.5-18.3-10.5c-15.5,0-23.8,10-23.8,28.3v73.1h-46
		V36.6h46v105.8c2.2-2.8,4.4-5,6.1-6.6c8.3-8.9,20.5-13.3,35.5-13.3c15.5,0,28.3,5,37.1,15c9.4,10,12.2,18.8,12.2,38.2v87h-46
		L507.3,260.9L507.3,260.9z"/>
	<path class="st2" d="M679,260.9v-15c-1.7,2.8-3.3,4.4-4.4,5.5c-8.3,8.9-21.6,13.9-35.5,13.9c-37.1,0-65.4-31.6-65.4-73.1
		c0-40.4,28.3-72,64.8-72c7.2,0,13.3,1.7,19.9,3.3c8.9,3.3,12.7,5.5,20.5,14.4v-13.3h46v136.3H679z M651.3,161.8
		c-16.6,0-29.9,13.9-29.9,31.6c0,17.2,13.3,31,29.9,31c16.1,0,29.4-13.9,29.4-31C680.7,175.6,667.4,161.8,651.3,161.8z"/>
	<path class="st2" d="M809.2,164.5v96.4h-46v-96.4h-21.1v-39.9h21.1v-41h46v41h32.7v39.9C841.9,164.5,809.2,164.5,809.2,164.5z"/>
	<path class="st2" d="M902.3,266.5c-17.7,0-34.9-5-52.1-15.5l16.6-33.8c12.2,8.3,26,13.3,36.6,13.3c8.3,0,14.4-4.4,14.4-10
		c0-2.2-1.1-5-2.2-6.1c-2.2-2.2-5-3.3-17.7-6.1c-6.1-1.7-18.8-6.1-24.9-11.6c-8.3-6.6-12.7-15.5-12.7-26.6
		c0-29.9,22.2-49.3,57.6-49.3c14.4,0,28.8,2.8,42.1,8.9l-15.5,31.6c-8.9-4.4-17.2-6.6-24.9-6.6c-8.3,0-14.4,4.4-14.4,10
		c0,2.2,1.1,4.4,2.8,5.5c3.9,2.8,14.4,5.5,19.9,6.6c7.8,2.2,16.1,5,22.2,10c7.8,6.1,13.3,16.1,13.3,29.4
		C963.8,246,940,266.5,902.3,266.5z"/>
</g>
</svg>
