<?xml version="1.0" encoding="UTF-8"?>
<svg width="390px" height="332px" viewBox="0 0 390 332" version="1.1" xmlns="http://www.w3.org/2000/svg" xmlns:xlink="http://www.w3.org/1999/xlink">
    <g id="Artboard" stroke="none" stroke-width="1" fill="none" fill-rule="evenodd">
        <path d="M375.3,180.3 C360.3,183.6 345.4,186.9 330.4,189.7 L330.4,140.9 L330.4,110.4 C330.4,106.5 330.4,91 329.8,87.7 C324.3,38.4 282.2,0.2 231.2,0.2 L158.6,0.2 C106,0.2 62.8,41.8 59.4,93.3 C59.4,95.5 59.4,108.8 59.4,110.5 L59.4,141 L59.4,189.8 C44.4,187 29.5,184.3 15.1,180.4 C6.8,178.2 -0.4,183.7 -0.4,192 C-0.4,193.7 0.2,195.3 0.7,197.5 C0.7,198.1 1.3,198.6 1.3,199.7 C31.8,276.7 107.1,331.6 194.6,331.6 C282.7,331.6 358,276.8 387.9,199.7 C387.9,199.1 388.5,198.6 388.5,198 C389.1,196.3 389.6,194.7 389.6,192.5 C390.3,183.6 383.6,178 375.3,180.3 Z" id="Path" fill="#F15A29"></path>
        <path d="M119.4,253.9 L168.2,200.7 C181.5,185.7 198.7,163.6 207.5,149.7 C215.3,138.1 219.1,125.9 219.1,114.8 C219.1,100.4 209.1,88.8 196.9,88.8 C184.7,88.8 176.4,98.8 176.4,113.2 C176.4,115.4 177,117.6 177.5,121.5 L123.2,121.5 C123.8,75.5 153.7,43.9 196.9,43.9 C240.1,43.9 270.6,73.8 270.6,116.5 C270.6,139.8 262.3,158.6 242.3,177.4 L210.2,209 L272.8,209 L272.8,253.3 L119.4,253.9 Z" id="Path" fill="#FFFFFF"></path>
    </g>
</svg>
