<?xml version="1.0" encoding="UTF-8"?>
<svg width="390px" height="332px" viewBox="0 0 390 332" version="1.1" xmlns="http://www.w3.org/2000/svg" xmlns:xlink="http://www.w3.org/1999/xlink">
    <!-- Generator: Sketch 52.2 (67145) - http://www.bohemiancoding.com/sketch -->
    <title>Artboard</title>
    <desc>Created with Sketch.</desc>
    <g id="Artboard" stroke="none" stroke-width="1" fill="none" fill-rule="evenodd">
        <path d="M375.3,180.3 C383.6,178 390.3,183.6 389.6,192.5 C389.6,194.7 389.1,196.3 388.5,198 C388.5,198.6 387.9,199.1 387.9,199.7 C358,276.8 282.7,331.6 194.6,331.6 C107.1,331.6 31.8,276.7 1.3,199.7 C1.3,198.6 0.7,198.1 0.7,197.5 C0.2,195.3 -0.4,193.7 -0.4,192 C-0.4,183.7 6.8,178.2 15.1,180.4 C29.5,184.3 44.4,187 59.4,189.8 L59.4,141 L59.4,110.5 C59.4,108.8 59.4,95.5 59.4,93.3 C62.8,41.8 106,0.2 158.6,0.2 L231.2,0.2 C282.2,0.2 324.3,38.4 329.8,87.7 C330.4,91 330.4,106.5 330.4,110.4 L330.4,140.9 L330.4,189.7 C345.4,186.9 360.3,183.6 375.3,180.3 Z M119.4,253.9 L272.8,253.3 L272.8,209 L210.2,209 L242.3,177.4 C262.3,158.6 270.6,139.8 270.6,116.5 C270.6,73.8 240.1,43.9 196.9,43.9 C153.7,43.9 123.8,75.5 123.2,121.5 L177.5,121.5 C177,117.6 176.4,115.4 176.4,113.2 C176.4,98.8 184.7,88.8 196.9,88.8 C209.1,88.8 219.1,100.4 219.1,114.8 C219.1,125.9 215.3,138.1 207.5,149.7 C198.7,163.6 181.5,185.7 168.2,200.7 L119.4,253.9 Z" id="Combined-Shape" fill="#FFFFFF"></path>
    </g>
</svg>