<svg id="Layer_1" data-name="Layer 1" xmlns="http://www.w3.org/2000/svg" viewBox="0 0 841.89 595.28"><defs><style>.cls-1{fill:#fff;}.cls-2{fill:#040404;}.cls-3{fill:#1c211c;}.cls-4{fill:#1d211d;}.cls-5{fill:#050505;}.cls-6{fill:#eaebeb;}.cls-7{fill:#d6d6d6;}.cls-8{fill:#f15a29;}.cls-9{fill:#d7d7d7;}.cls-10{fill:#f9f9f9;}.cls-11{fill:#030303;}.cls-12{fill:#060606;}.cls-13{fill:#fcfcfc;}</style></defs><title>hatLoading</title><path class="cls-1" d="M291.32,434.74a6.05,6.05,0,0,1,2.2.36,11.22,11.22,0,0,0,4,.68c.3,0,.6,0,.89,0h.21c1.5,0,2.81.81,4.29.81h0c.72,0,1.46-.05,2.18-.05a7.54,7.54,0,0,1,2,.21,47.14,47.14,0,0,0,5.74.8c.25,0,.46.3.68.45-.55,0-1.1.06-1.65.12-.88.08-1.27.48-1.27,1.31,0,1.94,0,3.89.07,5.84.23,11.68.22,23.36-.29,35a219.17,219.17,0,0,1-2.53,25.3A135.85,135.85,0,0,1,302.61,527c-.84,2.51-1.79,5-2.79,7.42a30.28,30.28,0,0,1-16.64,16.67,37.92,37.92,0,0,1-15,3.1h-3c-5.83,0-11.65-.11-17.47-.17a17.31,17.31,0,0,1-2.49-.21,8.51,8.51,0,0,1-7.28-8,8.72,8.72,0,0,1,5.75-8.77,7.52,7.52,0,0,1,2-.39c.8-.05,1.6-.07,2.4-.07h.94c5.84,0,11.68.06,17.52.12h.48a22.55,22.55,0,0,0,6.13-.71,26,26,0,0,0,3.16-1.05,13.39,13.39,0,0,0,7.45-7.48,104.62,104.62,0,0,0,3.77-11A142.93,142.93,0,0,0,292,492.75a276.27,276.27,0,0,0,1.38-28.33c0-8.76-.09-17.52-.16-26.28a9.21,9.21,0,0,0-.12-1.66.93.93,0,0,0-.5-.61c-1-.36-2.11-.65-3.17-1a14.1,14.1,0,0,1,1.94-.16m0-15a27.43,27.43,0,0,0-4.09.32L220,429.82l58.21,17.41c.05,5.67.09,11.49.09,17.2a261.35,261.35,0,0,1-1.3,26.79,126.56,126.56,0,0,1-3.89,21.28,86.22,86.22,0,0,1-3,8.84l-1,.29a9,9,0,0,1-2.06.15h-.32c-5.24-.06-10.55-.08-15.68-.11h-2.94c-.9,0-2.1,0-3.4.1a23,23,0,0,0-5.95,1.18A23.87,23.87,0,0,0,223,547.09a23.36,23.36,0,0,0,19.88,21.56,31.08,31.08,0,0,0,4.67.38l5.12.07c4.09,0,8.31.11,12.52.11h3.08a52.77,52.77,0,0,0,20.9-4.36c11.62-5.07,19.87-13.39,24.52-24.72,1.25-3,2.28-5.79,3.14-8.37a152.46,152.46,0,0,0,5.8-23.79,232.27,232.27,0,0,0,2.7-27c.39-8.87.53-18.15.42-28.75l31.86-2.14-35.19-24.14a15.61,15.61,0,0,0-7.48-3.24c-1-.14-1.87-.22-2.64-.3-.5-.05-1.17-.11-1.43-.16a22.47,22.47,0,0,0-5.77-.7h-.93a20.88,20.88,0,0,0-5.54-.77H298a21.34,21.34,0,0,0-6.63-1Z"/><path class="cls-1" d="M471.27,438.21a2.79,2.79,0,0,0-.64,2.33c.1,4.73.14,9.46.33,14.18.31,7.64.64,15.29,1.35,22.91.31,3.32.69,6.64,1.1,9.95.67,5.38,1.38,10.75,2.07,16.13.33,2.62.55,5.26,1,7.86a51.18,51.18,0,0,0,3.23,11.62,29.64,29.64,0,0,0,18.52,17.44,36.32,36.32,0,0,0,11.9,2.19h.77c1.38,0,2.77,0,4.15,0h5.53a10.57,10.57,0,0,1,3.61.52A8.69,8.69,0,0,1,522,560.18c-.59.05-1.18.06-1.77.06h-4.73c-1.59,0-3.18,0-4.76,0h-.66A54,54,0,0,1,487,554.85c-10.65-5-18.17-13.11-22.93-23.8a66.33,66.33,0,0,1-5.17-18.84c-1.3-10.34-2.58-20.69-3.72-31.06-.58-5.39-.85-10.81-1.23-16.22a20.82,20.82,0,0,1,.1-2.49c.79-.8.79-.81-.06-1.58-.5-4.22-.48-8.47-.67-12.71-.12-2.6-.13-5.2-.19-7.8a1.52,1.52,0,0,1-.06-.42h2.07a8.56,8.56,0,0,0,4-.71l3.68-.11a16.78,16.78,0,0,0,4-.5,23.35,23.35,0,0,1,4.46-.39m40.74-18-41.84,3.08-.71,0a27.27,27.27,0,0,0-6.39.79c-.11,0-.32,0-.72,0l-2.58.07-1.12,0-3.32.09-1.2.61H454c-.59,0-1.08,0-1.57,0l-14.8.64.45,14.8c0,.41,0,.81.09,1.22s0,.94,0,1.41c0,1.87.07,3.8.15,5.8.05,1.12.09,2.24.12,3.37.1,3.16.2,6.42.59,9.91a24.47,24.47,0,0,0,0,3.88l.27,4.13c.27,4.11.54,8.35,1,12.67,1.17,10.62,2.49,21.29,3.75,31.3a81.38,81.38,0,0,0,6.35,23.07c6.39,14.34,16.57,24.87,30.27,31.28a69.15,69.15,0,0,0,29.49,6.84H511c1.53,0,3,0,4.57,0h4.73c.9,0,1.88,0,3-.11a23.69,23.69,0,0,0,5.92-46,25.15,25.15,0,0,0-8.63-1.39H515c-1.8,0-3.2,0-4.54,0h-.38a21.8,21.8,0,0,1-7-1.37,14.82,14.82,0,0,1-9.54-9,36,36,0,0,1-2.27-8.23c-.21-1.31-.37-2.76-.54-4.3-.12-1-.23-2.07-.36-3.1l-.84-6.52c-.41-3.19-.83-6.38-1.22-9.57-.32-2.61-.73-6.05-1.06-9.5-.65-7.06-1-14.2-1.29-22.13-.12-2.93-.18-5.87-.23-8.94l26.29-25Z"/><path class="cls-1" d="M79.44,212.87A8.88,8.88,0,0,1,86.87,217,8.06,8.06,0,0,1,88.11,221c.1,2,.25,3.89.41,5.83,1.69,21.09,10.38,39,24.72,54.32,9.79,10.45,21.25,18.73,33.74,25.64a5.62,5.62,0,0,0,2.8.54c-.2.18-.37.47-.6.53a30.12,30.12,0,0,0-8.41,4.2,24.78,24.78,0,0,0-2.84,2.35c-1.63,1.46-2.88,3.31-4.77,4.49a142.45,142.45,0,0,1-37.29-31.11A106.51,106.51,0,0,1,77.2,255.89a99.64,99.64,0,0,1-6.11-28.44c-.1-1.52-.25-3-.29-4.58A14.1,14.1,0,0,1,71,220,8.59,8.59,0,0,1,77.9,213a7.26,7.26,0,0,1,1.54-.16m0-15h0a23.2,23.2,0,0,0-4.56.46,23.64,23.64,0,0,0-18.65,19,29.61,29.61,0,0,0-.43,6c0,1.37.13,2.62.22,3.72,0,.46.07.93.1,1.39a115.37,115.37,0,0,0,7,32.69,122.11,122.11,0,0,0,21.26,36.31,157.89,157.89,0,0,0,41.16,34.39l7.83,4.62,7.72-4.81a29.49,29.49,0,0,0,6.12-5.28c.25-.27.6-.65.73-.77l.55-.49c.23-.21.54-.49.7-.62a17.24,17.24,0,0,1,4.1-2.18,15.54,15.54,0,0,0,7.06-4.31l26.87-24.77L152,292.33a117.57,117.57,0,0,1-27.76-21.49c-12.58-13.42-19.36-28.23-20.72-45.26-.14-1.77-.29-3.61-.37-5.32a23,23,0,0,0-3.45-11.08,23.87,23.87,0,0,0-20.21-11.31Z"/><path class="cls-1" d="M615.78,123.09a7.82,7.82,0,0,1,6.52,3.08,6.19,6.19,0,0,1,1.38,3c.17,1.1.34,2.2.44,3.31a9.17,9.17,0,0,0,2,4.95c.76,1,1.6,1.92,2.4,2.88s1.79,2.13,2.65,3.22a25.94,25.94,0,0,1,5.57,16.68,25.64,25.64,0,0,1-5.6,16.24c-.95,1.2-2,2.35-2.95,3.52-.72.85-1.46,1.68-2.14,2.56a9.22,9.22,0,0,0-2,5,26.13,26.13,0,0,1-.43,3.3,7.76,7.76,0,0,1-7.72,6.11h-.17a7.83,7.83,0,0,1-7.51-6.1,10.88,10.88,0,0,1-.25-2.48,24.82,24.82,0,0,1,4.36-14.13c1.12-1.59,2.39-3.07,3.61-4.58.88-1.08,1.8-2.12,2.67-3.21a10.82,10.82,0,0,0,.07-12.84c-.75-1-1.58-1.94-2.38-2.91-1.14-1.4-2.35-2.75-3.42-4.2a24.78,24.78,0,0,1-4.9-14.38,13.83,13.83,0,0,1,.15-2.49,7.84,7.84,0,0,1,7.58-6.5h0m0-15h0a22.76,22.76,0,0,0-22.43,19.36,28.63,28.63,0,0,0-.29,5.1,39.56,39.56,0,0,0,7.85,22.86c1,1.36,2,2.55,2.9,3.61l.76.9-.22.27c-.27.33-.55.66-.82,1-1,1.27-2.23,2.72-3.4,4.38A39.59,39.59,0,0,0,593,188.05a26.35,26.35,0,0,0,.58,5.88,22.94,22.94,0,0,0,21.88,18H616a22.63,22.63,0,0,0,22.39-18c.26-1.19.42-2.32.54-3.34l.08-.1.72-.85.89-1.05c.71-.83,1.52-1.77,2.33-2.79a40.49,40.49,0,0,0,8.85-25.44A41,41,0,0,0,643,134.24c-.78-1-1.52-1.87-2.23-2.72l-.68-.81c-.31-.37-.63-.74-.94-1.12l-.28-.32c-.08-.65-.17-1.27-.26-1.84l-.07-.46a21.17,21.17,0,0,0-4.43-10.09,22.86,22.86,0,0,0-18.31-8.79Z"/><path class="cls-1" d="M656,123.08a9.33,9.33,0,0,1,2,.22,7.3,7.3,0,0,1,5.89,5.79,20.44,20.44,0,0,1,.44,3.3A8.62,8.62,0,0,0,666,137c.75,1,1.56,2,2.35,2.93,1,1.18,2,2.32,2.94,3.52a25.54,25.54,0,0,1,5.62,16.28,26,26,0,0,1-5.55,16.65c-.86,1.1-1.79,2.14-2.68,3.2s-1.65,1.89-2.41,2.88a9.35,9.35,0,0,0-2,5.37,20,20,0,0,1-.35,2.89,7.84,7.84,0,0,1-6.6,6.12,8.48,8.48,0,0,1-1.11.07,7.87,7.87,0,0,1-7.17-4.44,8.1,8.1,0,0,1-.78-3.64,24.42,24.42,0,0,1,4.28-14.56c1.1-1.6,2.38-3.08,3.61-4.59.87-1.08,1.8-2.12,2.67-3.2a10.81,10.81,0,0,0,.16-12.85c-.81-1.12-1.78-2.13-2.65-3.22-1.3-1.62-2.67-3.21-3.85-4.92a24.29,24.29,0,0,1-4.22-14.58,7.84,7.84,0,0,1,7.72-7.83m0-15h0a22.85,22.85,0,0,0-22.72,22.54A39,39,0,0,0,640.1,154c1.23,1.78,2.48,3.31,3.58,4.67.31.37.62.75.92,1.13l.12.14-.27.33c-.26.33-.53.65-.8,1-1.07,1.31-2.28,2.78-3.48,4.52a39.22,39.22,0,0,0-6.93,23.3,22.87,22.87,0,0,0,23,22.85,23.36,23.36,0,0,0,2.89-.18,22.88,22.88,0,0,0,19.54-18.13c.2-1,.36-2.07.46-3.07l.24-.28.87-1,.76-.9c.68-.8,1.46-1.7,2.26-2.73a42.06,42.06,0,0,0-.07-51.4c-.78-1-1.54-1.88-2.21-2.67-.32-.38-.65-.76-1-1.15l-.35-.42-.55-.67a28.32,28.32,0,0,0-.65-3.78A22.32,22.32,0,0,0,661,108.61a25,25,0,0,0-5.06-.53Z"/><path class="cls-1" d="M696.34,123.08a7.78,7.78,0,0,1,7,4.2,8.15,8.15,0,0,1,1,4,10.24,10.24,0,0,0,2.91,7.16c.72.84,1.46,1.68,2.17,2.53s1.63,1.91,2.37,2.91a26.21,26.21,0,0,1,5.26,16.38,25,25,0,0,1-5.44,15.86c-1,1.32-2.15,2.55-3.2,3.85-.88,1.08-1.77,2.15-2.55,3.29a8,8,0,0,0-1.47,4.29,18.82,18.82,0,0,1-.17,2.49,8.09,8.09,0,0,1-7.9,6.9,7.79,7.79,0,0,1-3.85-1,7.43,7.43,0,0,1-4.07-6.39,24.06,24.06,0,0,1,3.63-14.33c1.18-1.88,2.62-3.59,4-5.34.94-1.21,2-2.35,2.94-3.53a10.76,10.76,0,0,0,0-12.83c-1-1.33-2.15-2.55-3.19-3.86-1.21-1.52-2.47-3-3.53-4.64a24.11,24.11,0,0,1-3.9-14.26,7.88,7.88,0,0,1,7.91-7.67m0-15A22.5,22.5,0,0,0,685.13,111a22.72,22.72,0,0,0-11.69,19.28,38.84,38.84,0,0,0,6.33,22.93,61.27,61.27,0,0,0,3.7,5l.64.81c.25.31.49.61.73.89l-.61.76-.79,1a61,61,0,0,0-4.07,5.59,38.93,38.93,0,0,0-5.9,23A22.41,22.41,0,0,0,685.2,209a22.94,22.94,0,0,0,33.86-16.48,21.55,21.55,0,0,0,.27-2.16l.54-.67.23-.28c.35-.43.71-.85,1.07-1.27.73-.85,1.54-1.8,2.39-2.9a40,40,0,0,0,8.54-25.11,41.32,41.32,0,0,0-8.23-25.23c-.87-1.16-1.71-2.16-2.45-3l-.44-.53c-.54-.65-1.1-1.29-1.65-1.93a23.1,23.1,0,0,0-2.68-9.13,22.87,22.87,0,0,0-20.31-12.22Z"/><path class="cls-1" d="M390.09,36q5.28,0,10.58.24A242,242,0,0,1,426,38.77a120.84,120.84,0,0,1,19.05,4.55,191.55,191.55,0,0,1,58,29.85,145,145,0,0,1,29.88,30.15,116.81,116.81,0,0,1,21,49.5c1,6,1.44,12.16,1.87,18.27.57,8.34.92,16.68,1.25,25,.57,14.61.5,29.23.08,43.84q-.18,6.06-.43,12.11-.25,6.26-.55,12.51c-.36,7.24-.46,14.47-.35,21.71a53.45,53.45,0,0,0,1,8.29,15.17,15.17,0,0,0,1.67,4.7,37.31,37.31,0,0,0,5.88,8.08,23.94,23.94,0,0,0,11.05,6.4,41.84,41.84,0,0,0,11.18,1.29h1.24c2.5,0,5-.3,7.5-.48a.91.91,0,0,0,.72-1.21c-.16-.53-.33-1.06-.53-1.58A54.55,54.55,0,0,1,592,292.15v-56c0-4,0-8.07,0-12.11a15.7,15.7,0,0,1,.19-2.91,8,8,0,0,1,7.5-6.68c.53,0,1.06,0,1.59,0H723.75c.69,0,1.38,0,2.07.05a7.92,7.92,0,0,1,7.41,7.21c.09,1.11.09,2.23.1,3.34,0,2.79,0,5.57,0,8.35a13.54,13.54,0,0,0,.36,2.45.85.85,0,0,0,.56.55,7.57,7.57,0,0,0,1.65.16h9.61c1.53,0,3.06,0,4.59.11a33.29,33.29,0,0,1,30.25,24.21,33.65,33.65,0,0,1-26.62,42.69,40.91,40.91,0,0,1-6.65.44c-1.75,0-3.5,0-5.25,0l-6.79,0h-.49c-.42,0-.84,0-1.25,0a1.3,1.3,0,0,0-1.26.89c-.34,1.06-.61,2.14-1,3.2-5.77,17.42-17.28,29.2-34.68,35.14a46.61,46.61,0,0,1-14.77,2.43c-4.17,0-8.35,0-12.53,0a17.24,17.24,0,0,0-2.49.13,1.22,1.22,0,0,0-.81.78,17.24,17.24,0,0,0-.12,2.49c-.3,14.18-5.63,26.22-15.46,36.34a44.84,44.84,0,0,1-9.94,7.55,144.45,144.45,0,0,1-13.83,6.85A371.29,371.29,0,0,1,587.69,414c-14,4.35-28.06,8.09-42.29,11.39-11.65,2.71-23.36,5.16-35.16,7.13q-11.33,1.89-22.66,3.7c-2.88.46-5.79.79-8.69,1.16a5.3,5.3,0,0,1-.57,0l-1.09,0c-.91,0-1.82-.05-2.74-.05h0a1.88,1.88,0,0,0-1.38.63l-1.84.21a23.35,23.35,0,0,0-4.46.39,16.78,16.78,0,0,1-4,.5l-3.68.11a8.56,8.56,0,0,1-4,.71h-2.07c-1.24-.07-2.49-.13-3.73-.13a27.89,27.89,0,0,0-5,.41,25.3,25.3,0,0,1-4.14.44c-2.37,0-4.73.07-7.1.13h-1a5.78,5.78,0,0,0-1.51.16,17.67,17.67,0,0,1-5,.53h-1.21l-30,0H371.54a22.32,22.32,0,0,1-6-.61,2.45,2.45,0,0,0-.72-.09,4.83,4.83,0,0,0-.94.1,3.73,3.73,0,0,0-1.05.6l-2.56-.07a4.27,4.27,0,0,0-1.07-.57,9.21,9.21,0,0,0-1.66-.12c-3.46-.13-6.95.17-10.37-.65h-.07c-.28,0-.65.39-1,.58a9.32,9.32,0,0,1-1.29.09,8.2,8.2,0,0,1-2.13-.28,3.46,3.46,0,0,0-1.08-.52c-2.45-.24-4.93,0-7.36-.54h0c-.18,0-.42.28-.63.41a5.5,5.5,0,0,1-1,.09,4.92,4.92,0,0,1-1.6-.26,3.41,3.41,0,0,0-1.07-.55,40.7,40.7,0,0,1-5.71-.54h0c-.18,0-.42.28-.63.41a5.17,5.17,0,0,1-1,.09,4.65,4.65,0,0,1-1.64-.29,2.08,2.08,0,0,0-1.46-.57l-4,0-2-.18c-.23-.15-.44-.41-.69-.45a47.14,47.14,0,0,1-5.74-.8,7.54,7.54,0,0,0-2-.21c-.72,0-1.46.05-2.18.05h0c-1.48,0-2.79-.81-4.29-.81h-.21c-.29,0-.59,0-.89,0a11.22,11.22,0,0,1-4-.68,6.05,6.05,0,0,0-2.2-.36,14.23,14.23,0,0,0-1.94.16c-1.1-.07-2.22-.06-3.31-.24-7.4-1.25-14.81-2.45-22.18-3.84A373.86,373.86,0,0,1,202.06,414a208.25,208.25,0,0,1-35-16.59A122.2,122.2,0,0,1,146.39,382a76.74,76.74,0,0,1-11.15-12.92A51.29,51.29,0,0,1,128,353.69a41.92,41.92,0,0,1,4.27-33c.34-.6.59-1.25.88-1.87,1.89-1.18,3.14-3,4.77-4.49a24.78,24.78,0,0,1,2.84-2.35,30.12,30.12,0,0,1,8.41-4.2c.23-.06.4-.35.6-.53a33.21,33.21,0,0,1,10.48-2.61,71.88,71.88,0,0,1,8-.44,74.6,74.6,0,0,1,22.12,3.39c4,1.23,7.9,2.68,11.86,4,1.84.62,3.69,1.23,5.56,1.76a10.19,10.19,0,0,0,2.47.31h.1a3.65,3.65,0,0,0,3.45-2.44,12.21,12.21,0,0,0,.45-1.6,21,21,0,0,0,.38-6.23c-.33-3.74-.64-7.49-1.06-11.22-.81-7.19-1.59-14.38-2.05-21.61-.72-11.4-.85-22.81-.69-34.23.13-8.77.66-17.53,1.31-26.27.49-6.53,1.13-13,2-19.53,2.44-18.94,6.21-37.59,12.49-55.68a158.69,158.69,0,0,1,12.71-28.08,107.17,107.17,0,0,1,12.1-17,84.24,84.24,0,0,1,12.46-11.71A202.47,202.47,0,0,1,335.32,43a209.89,209.89,0,0,1,26.18-5.14A219.11,219.11,0,0,1,390.09,36M213.27,331.24a5.13,5.13,0,0,0-.75-.13h-.07c-.63,0-1.26.06-1.88.06A34.94,34.94,0,0,1,198.94,329L190.68,326a75.32,75.32,0,0,0-12.87-3.49,61.51,61.51,0,0,0-9.93-.9,41.57,41.57,0,0,0-6.28.46,27.4,27.4,0,0,0-9.1,2.87,14.66,14.66,0,0,0-6.92,8.05,25.81,25.81,0,0,0-.28,17.59A38.24,38.24,0,0,0,151,361.21a62.68,62.68,0,0,0,8.18,8.9,103,103,0,0,0,15.4,11.44,180.22,180.22,0,0,0,26.45,13.29A299.61,299.61,0,0,0,242.3,408.2q18.44,4.6,37.19,7.66c8.92,1.48,17.87,2.78,26.85,3.84,8.29,1,16.61,1.73,24.93,2.51q6,.57,12.07.91c8.34.45,16.68.9,25,1.2,10.82.38,21.65.63,32.47.63,14.22,0,28.44-.43,42.66-1.51,10-.77,20-1.7,29.92-2.94q14.29-1.78,28.5-4.16,13.38-2.22,26.65-5c18.65-4,37.12-8.62,55.32-14.33a351.27,351.27,0,0,0,35.26-12.87A126.11,126.11,0,0,0,631.5,378a27.93,27.93,0,0,0,6.33-4.74,35.76,35.76,0,0,0,10.37-21.81,33.27,33.27,0,0,0-.07-4.57,1.3,1.3,0,0,0-1.13-1l-3.75-.12a51.32,51.32,0,0,1-28.51-9.42,67.33,67.33,0,0,1-5.85-4.71,3.31,3.31,0,0,0-2.27-.93,4.2,4.2,0,0,0-.77.08,106.38,106.38,0,0,1-16.6,1.68c-.92,0-1.83,0-2.74,0a64.68,64.68,0,0,1-12.64-1.14,41.55,41.55,0,0,1-23.23-13.08,54.51,54.51,0,0,1-7.67-10.9,32.67,32.67,0,0,1-3.06-8.18,61.83,61.83,0,0,1-1.58-12.41c-.17-7.24,0-14.47.3-21.71.42-9.74.9-19.47,1.14-29.21a642.69,642.69,0,0,0-2.24-73.43,91.37,91.37,0,0,0-2.18-13.17,100,100,0,0,0-17.84-37.4A130.61,130.61,0,0,0,490.69,85.7a174,174,0,0,0-48.41-24.94,120.16,120.16,0,0,0-25.2-5.66,31.55,31.55,0,0,0-3.48-.35,7.45,7.45,0,0,0-1.49.14,14.43,14.43,0,0,0-4.51-.77c-5-.25-10-.62-15-.67h-2.35a199.8,199.8,0,0,0-39.55,3.85,185.38,185.38,0,0,0-46.77,16.19,23,23,0,0,0-2.08,1.34,4.46,4.46,0,0,0-1.17.29c-5.29,2.89-10.44,6-15.51,9.26a2.89,2.89,0,0,0-.53.62,70.19,70.19,0,0,0-8.27,5.6,73.63,73.63,0,0,0-17.87,18.55,117.12,117.12,0,0,0-11,20.12c-7,16.19-11.22,33.17-14.15,50.5-.76,4.53-1.27,9.09-1.94,13.63-1,6.76-1.6,13.55-2.09,20.35q-1.37,19-1,38a317.73,317.73,0,0,0,2.36,35.82c.57,4.41,1.09,8.83,1.31,13.29a69.69,69.69,0,0,1-.22,10,24,24,0,0,1-1.55,6.47c-2.74,6.95-7.65,11.47-15,13.27-.66.16-1.3.44-1.95.66m431.3-.7h.13q7.53,0,15.06,0h20.86a36.94,36.94,0,0,0,7.84-.81,36.41,36.41,0,0,0,24.36-17.45,36,36,0,0,0,5.11-19.09c-.08-19.34,0-38.68,0-58,0-1,0-1.95,0-2.92,0-1.82-.41-2.21-2.18-2.25l-2,0H612.07l-2,0c-2.37,0-2.6.27-2.64,2.63,0,1.11,0,2.23,0,3.34V281c0,3.9,0,7.79,0,11.69a40.52,40.52,0,0,0,.9,9.11,37.15,37.15,0,0,0,36.23,28.7m97.07-42.46h4.41c1.25,0,2.5,0,3.75-.1a17.57,17.57,0,0,0,15.33-22.29c-1.67-6.54-6.18-10.73-12.69-12.57a19.94,19.94,0,0,0-5-.56c-1.73,0-3.46,0-5.19,0l-6.89,0a8.31,8.31,0,0,0-1.22.16,1,1,0,0,0-.78.86,20.82,20.82,0,0,0-.1,2.5V284c0,1,0,1.94.07,2.91a1.27,1.27,0,0,0,1,1.13c.55,0,1.1.07,1.65.07h5.59M390.09,21a234.77,234.77,0,0,0-30.54,2,225,225,0,0,0-28.05,5.5,218.52,218.52,0,0,0-76.68,37.67,101,101,0,0,0-14.67,13.76,122.5,122.5,0,0,0-13.78,19.32A172.59,172.59,0,0,0,212.45,130c-6,17.4-10.35,36.59-13.2,58.69-.84,6.55-1.53,13.38-2.05,20.32-.55,7.45-1.2,17.27-1.35,27.18-.19,13.45,0,24.7.72,35.39.47,7.46,1.27,14.82,2.11,22.33,0,.23,0,.46.08.69-1.3-.44-2.61-.87-4-1.28a88.5,88.5,0,0,0-36.17-3.53,48.12,48.12,0,0,0-15.15,3.91l-2.13,1,0,0a50.37,50.37,0,0,0-8.83,4.82,34,34,0,0,0-4.13,3.31l-.41.36a37.49,37.49,0,0,0-2.69,2.7l-.53.56-3.26,2-1.88,4-.42.92-.05.12c-7.83,13.73-9.7,28.54-5.58,44a65.25,65.25,0,0,0,9.29,19.92,90.58,90.58,0,0,0,13.31,15.45,135.82,135.82,0,0,0,23.22,17.32A223.13,223.13,0,0,0,196.8,428a387.27,387.27,0,0,0,64.31,17.52c5.95,1.12,11.94,2.12,17.74,3.09l4.72.8a31.23,31.23,0,0,0,4.13.38l.65,0,1.6.11.61-.09a26.91,26.91,0,0,0,6.81.89,20.84,20.84,0,0,0,5.55.78q.81,0,1.59,0c1.07.23,2.07.38,3,.49l.79.54,3.91.35.31,0,1.73.15.64.06h2a20,20,0,0,0,5.81.87,19.66,19.66,0,0,0,2.86-.21l.91.07a19.84,19.84,0,0,0,6.22,1,20.73,20.73,0,0,0,2.93-.21c1,.07,1.95.1,2.76.11l.38.11a23.09,23.09,0,0,0,6.15.83,25.26,25.26,0,0,0,3.35-.23l.34-.05c2.24.22,4.29.22,6.07.23h.49l1.11.62,3.66.1,1.24,0,1.31,0,4.37.12.46-.28c1.53.13,3,.16,4.28.16h22.81l30,0h1.2a34.55,34.55,0,0,0,7.45-.68h.37l4.5-.08,2.55-.05a39.84,39.84,0,0,0,6.58-.68,13.69,13.69,0,0,1,2.28-.16c.95,0,2,.06,2.87.11l.75,0,.76,0h1.42a25.48,25.48,0,0,0,6.69-.78l1.39-.05a31.26,31.26,0,0,0,6.77-.82h.35c.56,0,1.25,0,2-.09l.28,0,.28,0,1.18-.14.67-.07,4.22-.47c.6,0,1.19-.07,1.77-.14l1.56-.19c2.45-.31,5-.62,7.6-1,7.2-1.14,14.65-2.35,22.78-3.71,11-1.83,22.78-4.23,36.09-7.32,15.54-3.61,29.72-7.43,43.36-11.68a381.4,381.4,0,0,0,40.35-14.7,156.39,156.39,0,0,0,15.27-7.58A59.52,59.52,0,0,0,661,396c9.93-10.23,16.15-22,18.56-35.21h2.18a61.54,61.54,0,0,0,19.51-3.24,69.67,69.67,0,0,0,27.55-16.93A68.9,68.9,0,0,0,743,319.06l4.32,0h.28a52,52,0,0,0,8.78-.67,49.18,49.18,0,0,0,33-22.24,48.64,48.64,0,0,0-38.64-74.41l-2.52-.08c0-.37,0-.74-.08-1.13a23,23,0,0,0-21.53-21c-1.11-.06-2.13-.07-2.9-.07H601.27c-1,0-1.79,0-2.58.08a23.13,23.13,0,0,0-21.27,19A31.08,31.08,0,0,0,577,224q0,4.55,0,9.11v59.05q0,3.22.27,6.36a8.48,8.48,0,0,1-2.22-1.63,22.47,22.47,0,0,1-3.47-4.83.8.8,0,0,1,0-.11v0a42.47,42.47,0,0,1-.75-5.86c-.1-7.1,0-14.08.34-20.75.19-4,.38-8.16.56-12.65.14-3.67.31-8,.43-12.28.48-16.53.45-31.2-.08-44.86-.32-8.09-.68-16.73-1.28-25.47l0-.44a190,190,0,0,0-2-19.34A132.12,132.12,0,0,0,545,94.49,161.24,161.24,0,0,0,512.1,61.22,207.58,207.58,0,0,0,449.64,29a136,136,0,0,0-21.4-5.11,263.44,263.44,0,0,0-26.9-2.64c-3.76-.17-7.54-.25-11.25-.25Zm-79,65.64A170.77,170.77,0,0,1,353.65,72a185.33,185.33,0,0,1,36.58-3.56h2.19c3.36,0,6.79.23,10.41.43,1.34.08,2.67.16,4,.22l.51,0,3.42,1.33,3.18-.64.17,0,1.32.17a104.54,104.54,0,0,1,22.07,5,160.15,160.15,0,0,1,44.27,22.79,115.06,115.06,0,0,1,23.77,23.13,85.56,85.56,0,0,1,15.21,31.85,76.75,76.75,0,0,1,1.83,11,621.72,621.72,0,0,1,2.18,71.72c-.19,7.85-.55,15.91-.9,23.71-.08,1.73-.15,3.47-.23,5.2-.37,8.33-.47,15.76-.31,22.71a78,78,0,0,0,2,15.41,47.57,47.57,0,0,0,4.47,12,69.9,69.9,0,0,0,9.77,13.87,56.37,56.37,0,0,0,31.4,17.7,78.61,78.61,0,0,0,15.58,1.44c1,0,2.09,0,3.17,0a129.2,129.2,0,0,0,13.46-1.06c1,.77,2,1.53,3,2.27A67.09,67.09,0,0,0,630,359.18a24.22,24.22,0,0,1-2.93,3.62,13.66,13.66,0,0,1-3,2.18,112.35,112.35,0,0,1-10.93,5.36,335.17,335.17,0,0,1-33.76,12.31c-16.84,5.28-34.49,9.85-53.94,14-8.75,1.85-17.5,3.51-26,4.93-9.3,1.55-18.68,2.92-27.89,4.07-8.73,1.09-18.28,2-29.2,2.86-12.92,1-26.51,1.47-41.52,1.47-9.76,0-20.21-.21-31.93-.63-8.09-.28-16.37-.73-24.38-1.16l-.38,0c-3.69-.2-7.55-.49-11.47-.86l-3.49-.33c-6.95-.65-14.14-1.33-21.1-2.15-8.25-1-16.8-2.19-26.16-3.74-12.42-2.05-24.52-4.54-36-7.42A282.53,282.53,0,0,1,206.76,381a165.25,165.25,0,0,1-24.24-12.17A88.24,88.24,0,0,1,169.33,359a48.61,48.61,0,0,1-6.26-6.77,23.6,23.6,0,0,1-3.56-6.45,10.91,10.91,0,0,1,.16-7.65l0,0h0a13.13,13.13,0,0,1,4.19-1.21,26.68,26.68,0,0,1,4-.29,46.56,46.56,0,0,1,7.5.7,59.78,59.78,0,0,1,10.31,2.84l3.86,1.37L194,343.1a49.66,49.66,0,0,0,16.61,3.08h1l3,.48,3.57-1.22,1-.35.1,0c11.78-3,20.4-10.71,25-22.25a39,39,0,0,0,2.52-10.52,84.53,84.53,0,0,0,.27-12.17c-.24-5.09-.83-10-1.42-14.52a303.88,303.88,0,0,1-2.23-34.14c-.22-12.14.12-24.47,1-36.63.42-5.77,1-12.56,2-19.22.29-1.91.54-3.79.78-5.62.37-2.7.71-5.24,1.12-7.73,3.15-18.63,7.32-33.58,13.13-47a102,102,0,0,1,9.56-17.56A58.44,58.44,0,0,1,285,102.81c.75-.53,1.5-1.08,2.24-1.63a35.94,35.94,0,0,1,4.22-2.86l2.68-1.39.95-1.13c3.89-2.46,7.54-4.64,11.05-6.6l1.64-.4L310,87.42l1-.69.08,0ZM622.44,245H702.9q0,3.38,0,6.75c0,13.6,0,27.66,0,41.51a21.13,21.13,0,0,1-3,11.3,21.44,21.44,0,0,1-14.68,10.52,21.65,21.65,0,0,1-4.66.47H659.76q-7.54,0-15.11,0h-.08a22.16,22.16,0,0,1-21.63-17.12,26.25,26.25,0,0,1-.5-5.75c0-2.74,0-5.47,0-8.2V245Zm125.87,28v-5.44l.27,0c1.69.51,1.81,1,2,1.78.41,1.59,0,2.17-.18,2.45a3,3,0,0,1-1.67,1.17l-.43,0Z"/><path class="cls-2" d="M289.38,434.9c-1.1-.07-2.22-.06-3.31-.24-7.4-1.25-14.81-2.45-22.18-3.84A373.86,373.86,0,0,1,202.06,414a208.25,208.25,0,0,1-35-16.59A121.73,121.73,0,0,1,146.4,382a76.34,76.34,0,0,1-11.16-12.92A51.29,51.29,0,0,1,128,353.69a41.92,41.92,0,0,1,4.27-33c.34-.6.59-1.25.88-1.87,1.89-1.18,3.14-3,4.77-4.49a24.78,24.78,0,0,1,2.84-2.35,30.12,30.12,0,0,1,8.41-4.2c.23-.06.4-.35.6-.53a33.21,33.21,0,0,1,10.48-2.61,74,74,0,0,1,30.12,2.95c4,1.23,7.9,2.68,11.86,4,1.84.62,3.69,1.23,5.56,1.76a10.25,10.25,0,0,0,2.47.31,3.65,3.65,0,0,0,3.55-2.44,12.21,12.21,0,0,0,.45-1.6,21,21,0,0,0,.38-6.23c-.33-3.74-.64-7.49-1.06-11.22-.81-7.19-1.59-14.38-2.05-21.61-.72-11.4-.85-22.81-.69-34.23.13-8.77.66-17.53,1.31-26.27.49-6.53,1.13-13,2-19.53,2.44-18.94,6.21-37.59,12.49-55.68a158.69,158.69,0,0,1,12.71-28.08,107.17,107.17,0,0,1,12.1-17,84.24,84.24,0,0,1,12.46-11.71A202.47,202.47,0,0,1,335.32,43a209.89,209.89,0,0,1,26.18-5.14,223,223,0,0,1,39.17-1.6A242,242,0,0,1,426,38.77a120.84,120.84,0,0,1,19.05,4.55,191.55,191.55,0,0,1,58,29.85,145,145,0,0,1,29.88,30.15,116.81,116.81,0,0,1,21,49.5,183.24,183.24,0,0,1,1.87,18.27c.57,8.34.92,16.68,1.25,25,.57,14.61.5,29.23.08,43.84q-.18,6.06-.43,12.11-.25,6.26-.55,12.51c-.36,7.24-.46,14.47-.35,21.71a53.45,53.45,0,0,0,1,8.29,15.17,15.17,0,0,0,1.67,4.7,37.31,37.31,0,0,0,5.88,8.08,23.94,23.94,0,0,0,11.05,6.4A44.07,44.07,0,0,0,587.76,315c2.5,0,5-.3,7.5-.48a.91.91,0,0,0,.72-1.21c-.16-.53-.33-1.06-.53-1.58A54.55,54.55,0,0,1,592,292.15v-56c0-4,0-8.07,0-12.11a15.7,15.7,0,0,1,.19-2.91,8,8,0,0,1,7.5-6.68c1.11-.07,2.23,0,3.34,0h119c1.25,0,2.51,0,3.76,0a7.92,7.92,0,0,1,7.41,7.21c.09,1.11.09,2.23.1,3.34,0,2.79,0,5.57,0,8.35a13.54,13.54,0,0,0,.36,2.45.85.85,0,0,0,.56.55,7.57,7.57,0,0,0,1.65.16c3.2,0,6.41,0,9.61,0,1.53,0,3.06,0,4.59.11a33.29,33.29,0,0,1,30.25,24.21,33.65,33.65,0,0,1-26.62,42.69,40.91,40.91,0,0,1-6.65.44c-4.18.07-8.36,0-12.53,0-.42,0-.84,0-1.25,0a1.3,1.3,0,0,0-1.26.89c-.34,1.06-.61,2.14-1,3.2-5.77,17.42-17.28,29.2-34.68,35.14a46.61,46.61,0,0,1-14.77,2.43c-4.17,0-8.35,0-12.53,0a17.24,17.24,0,0,0-2.49.13,1.22,1.22,0,0,0-.81.78,17.24,17.24,0,0,0-.12,2.49c-.3,14.18-5.63,26.22-15.46,36.34a44.84,44.84,0,0,1-9.94,7.55,144.45,144.45,0,0,1-13.83,6.85A371.29,371.29,0,0,1,587.69,414c-14,4.35-28.06,8.09-42.29,11.39-11.65,2.71-23.36,5.16-35.16,7.13q-11.33,1.89-22.66,3.7c-2.88.46-5.79.79-8.69,1.16a13.13,13.13,0,0,1-1.66,0c-.91,0-1.82-.05-2.74-.05a1.88,1.88,0,0,0-1.38.63l-1.84.21a23.35,23.35,0,0,0-4.46.39,16.78,16.78,0,0,1-4,.5l-3.68.11c-1.93,1-4,.63-6,.72a36.41,36.41,0,0,0-8.73.28,25.3,25.3,0,0,1-4.14.44c-2.37,0-4.73.07-7.1.13a9.79,9.79,0,0,0-2.49.15,21.67,21.67,0,0,1-6.21.52q-25.27,0-50.53,0c-2.77,0-5.56.15-8.29-.6a3.58,3.58,0,0,0-1.66,0,3.73,3.73,0,0,0-1.05.6l-2.56-.07a4.27,4.27,0,0,0-1.07-.57,9.21,9.21,0,0,0-1.66-.12c-3.46-.13-6.95.17-10.37-.65-.29-.07-.7.37-1.05.57a8.4,8.4,0,0,1-3.42-.19,3.46,3.46,0,0,0-1.08-.52c-2.45-.24-4.93,0-7.36-.54-.19,0-.45.27-.67.41a5,5,0,0,1-2.58-.17,3.41,3.41,0,0,0-1.07-.55,40.7,40.7,0,0,1-5.71-.54c-.18,0-.44.27-.66.41a5,5,0,0,1-2.59-.2,2.08,2.08,0,0,0-1.46-.57l-4,0-2-.18c-.22-.15-.43-.41-.68-.45a47.14,47.14,0,0,1-5.74-.8,16.34,16.34,0,0,0-4.15-.16c-1.55,0-2.91-.89-4.5-.81a11.85,11.85,0,0,1-4.91-.65A8.38,8.38,0,0,0,289.38,434.9Zm122.73-380a14.43,14.43,0,0,0-4.51-.77c-5-.25-10-.62-15-.67a200.49,200.49,0,0,0-41.9,3.84,185.38,185.38,0,0,0-46.77,16.19,23,23,0,0,0-2.08,1.34,4.46,4.46,0,0,0-1.17.29c-5.29,2.89-10.44,6-15.51,9.26a2.89,2.89,0,0,0-.53.62,71.15,71.15,0,0,0-8.28,5.6,73.76,73.76,0,0,0-17.86,18.55,117.12,117.12,0,0,0-11,20.12c-7,16.19-11.22,33.17-14.15,50.5-.76,4.53-1.27,9.09-1.94,13.63-1,6.76-1.6,13.55-2.09,20.35q-1.37,19-1,38a317.73,317.73,0,0,0,2.36,35.82c.57,4.41,1.09,8.83,1.31,13.29a69.69,69.69,0,0,1-.22,10,24,24,0,0,1-1.55,6.47c-2.74,6.95-7.65,11.47-15,13.27-.66.16-1.3.44-1.95.66a4,4,0,0,0-.82-.12A33.28,33.28,0,0,1,198.94,329L190.68,326a75.32,75.32,0,0,0-12.87-3.49,51.55,51.55,0,0,0-16.21-.44,27.4,27.4,0,0,0-9.1,2.87,14.66,14.66,0,0,0-6.92,8.05,25.81,25.81,0,0,0-.28,17.59A38.24,38.24,0,0,0,151,361.21a62.68,62.68,0,0,0,8.18,8.9,103,103,0,0,0,15.4,11.44,180.22,180.22,0,0,0,26.45,13.29A299.61,299.61,0,0,0,242.3,408.2q18.44,4.6,37.19,7.66c8.92,1.48,17.87,2.78,26.85,3.84,8.29,1,16.61,1.73,24.93,2.51q6,.57,12.07.91c8.34.45,16.68.9,25,1.2,25.06.89,50.1,1,75.13-.88,10-.77,20-1.7,29.92-2.94q14.29-1.78,28.5-4.16,13.38-2.22,26.65-5c18.65-4,37.12-8.62,55.32-14.33a351.27,351.27,0,0,0,35.26-12.87A126.11,126.11,0,0,0,631.5,378a27.93,27.93,0,0,0,6.33-4.74,35.76,35.76,0,0,0,10.37-21.81,33.27,33.27,0,0,0-.07-4.57,1.3,1.3,0,0,0-1.13-1l-3.75-.12a51.32,51.32,0,0,1-28.51-9.42,67.33,67.33,0,0,1-5.85-4.71,3.3,3.3,0,0,0-3-.85,106.38,106.38,0,0,1-16.6,1.68,68.38,68.38,0,0,1-15.38-1.1,41.55,41.55,0,0,1-23.23-13.08,54.51,54.51,0,0,1-7.67-10.9,32.67,32.67,0,0,1-3.06-8.18,61.83,61.83,0,0,1-1.58-12.41c-.17-7.24,0-14.47.3-21.71.42-9.74.9-19.47,1.14-29.21a642.69,642.69,0,0,0-2.24-73.43,91.37,91.37,0,0,0-2.18-13.17,100,100,0,0,0-17.84-37.4A130.61,130.61,0,0,0,490.69,85.7a174,174,0,0,0-48.41-24.94,120.16,120.16,0,0,0-25.2-5.66A15.65,15.65,0,0,0,412.11,54.89ZM662.69,230H614.27c-1.39,0-2.79,0-4.18,0-2.37,0-2.6.27-2.64,2.63,0,1.11,0,2.23,0,3.34V281c0,3.9,0,7.79,0,11.69a40.52,40.52,0,0,0,.9,9.11,37.15,37.15,0,0,0,36.36,28.7c12,0,23.93,0,35.89,0a37.34,37.34,0,0,0,32.23-18.26,36,36,0,0,0,5.11-19.09c-.08-19.34,0-38.68,0-58,0-1,0-1.95,0-2.92,0-1.82-.41-2.21-2.18-2.25-1.25,0-2.51,0-3.76,0Zm70.62,40.23V284c0,1,0,1.94.07,2.91a1.27,1.27,0,0,0,1,1.13c.55,0,1.1.07,1.65.07,3.34,0,6.67,0,10,0,1.25,0,2.5,0,3.75-.1a17.57,17.57,0,0,0,15.33-22.29c-1.67-6.54-6.18-10.73-12.69-12.57a19.94,19.94,0,0,0-5-.56c-4-.07-8,0-12.08,0a8.31,8.31,0,0,0-1.22.16,1,1,0,0,0-.78.86,20.82,20.82,0,0,0-.1,2.5Z"/><path class="cls-3" d="M289.38,434.9a8.38,8.38,0,0,1,4.14.2,11.85,11.85,0,0,0,4.91.65c1.59-.08,2.95.81,4.5.81a16.34,16.34,0,0,1,4.15.16,47.14,47.14,0,0,0,5.74.8c.25,0,.46.3.68.45-.55,0-1.1.06-1.65.12-.88.08-1.27.48-1.27,1.31,0,1.94,0,3.89.07,5.84.23,11.68.22,23.36-.29,35a219.17,219.17,0,0,1-2.53,25.3A135.85,135.85,0,0,1,302.61,527c-.84,2.51-1.79,5-2.79,7.42a30.28,30.28,0,0,1-16.64,16.67,37.92,37.92,0,0,1-15,3.1c-6.81,0-13.63-.09-20.44-.16a17.31,17.31,0,0,1-2.49-.21,8.51,8.51,0,0,1-7.28-8,8.72,8.72,0,0,1,5.75-8.77,7.52,7.52,0,0,1,2-.39c1.11-.08,2.23-.07,3.34-.06,5.84,0,11.68.06,17.52.12a23.69,23.69,0,0,0,6.61-.71,26,26,0,0,0,3.16-1.05,13.39,13.39,0,0,0,7.45-7.48,104.62,104.62,0,0,0,3.77-11A142.93,142.93,0,0,0,292,492.75a279.15,279.15,0,0,0,1.39-28.33c0-8.76-.1-17.52-.17-26.28a9.21,9.21,0,0,0-.12-1.66.93.93,0,0,0-.5-.61C291.51,435.51,290.44,435.22,289.38,434.9Z"/><path class="cls-3" d="M453.06,439.93c2-.09,4.11.25,6-.72l3.68-.11a16.78,16.78,0,0,0,4-.5,23.35,23.35,0,0,1,4.46-.39,2.79,2.79,0,0,0-.64,2.33c.1,4.73.14,9.46.33,14.18.31,7.64.64,15.29,1.35,22.91.31,3.32.69,6.64,1.1,9.95.67,5.38,1.38,10.75,2.07,16.13.33,2.62.55,5.26,1,7.86a51.18,51.18,0,0,0,3.23,11.62,29.64,29.64,0,0,0,18.52,17.44,35.9,35.9,0,0,0,12.67,2.18c3.2-.09,6.4,0,9.6,0a10.78,10.78,0,0,1,3.69.52A8.69,8.69,0,0,1,522,560.18c-.83.07-1.67.05-2.5.06-2.92,0-5.84,0-8.76,0A53.89,53.89,0,0,1,487,554.85c-10.65-5-18.17-13.11-22.93-23.8a66.33,66.33,0,0,1-5.17-18.84c-1.3-10.34-2.58-20.69-3.72-31.06-.58-5.39-.85-10.81-1.23-16.22a20.82,20.82,0,0,1,.1-2.49c.79-.8.79-.81-.06-1.58-.5-4.22-.48-8.47-.67-12.71-.12-2.6-.13-5.2-.19-7.8A1.52,1.52,0,0,1,453.06,439.93Z"/><path class="cls-4" d="M149.78,307.28c-.2.18-.37.47-.6.53a30.12,30.12,0,0,0-8.41,4.2,24.78,24.78,0,0,0-2.84,2.35c-1.63,1.46-2.88,3.31-4.77,4.49a142.45,142.45,0,0,1-37.29-31.11A106.51,106.51,0,0,1,77.2,255.89a99.64,99.64,0,0,1-6.11-28.44c-.1-1.52-.25-3-.29-4.58A14.1,14.1,0,0,1,71,220,8.59,8.59,0,0,1,77.9,213a8.76,8.76,0,0,1,9,4A8.06,8.06,0,0,1,88.11,221c.1,2,.25,3.89.41,5.83,1.69,21.09,10.38,39,24.72,54.32,9.79,10.45,21.25,18.73,33.74,25.64A5.62,5.62,0,0,0,149.78,307.28Z"/><path class="cls-5" d="M636.76,160.2a25.64,25.64,0,0,1-5.6,16.24c-.95,1.2-2,2.35-2.95,3.52-.72.85-1.46,1.68-2.14,2.56a9.22,9.22,0,0,0-2,5,26.13,26.13,0,0,1-.43,3.3,7.91,7.91,0,0,1-15.4,0,10.88,10.88,0,0,1-.25-2.48,24.82,24.82,0,0,1,4.36-14.13c1.12-1.59,2.39-3.07,3.61-4.58.88-1.08,1.8-2.12,2.67-3.21a10.82,10.82,0,0,0,.07-12.84c-.75-1-1.58-1.94-2.38-2.91-1.14-1.4-2.35-2.75-3.42-4.2a24.78,24.78,0,0,1-4.9-14.38,13.83,13.83,0,0,1,.15-2.49,8,8,0,0,1,14.11-3.42,6.19,6.19,0,0,1,1.38,3c.17,1.1.34,2.2.44,3.31a9.17,9.17,0,0,0,2,4.95c.76,1,1.6,1.92,2.4,2.88s1.79,2.13,2.65,3.22A25.94,25.94,0,0,1,636.76,160.2Z"/><path class="cls-5" d="M676.94,159.73a26,26,0,0,1-5.55,16.65c-.86,1.1-1.79,2.14-2.68,3.2s-1.65,1.89-2.41,2.88a9.35,9.35,0,0,0-2,5.37,20,20,0,0,1-.35,2.89,7.84,7.84,0,0,1-6.6,6.12,7.93,7.93,0,0,1-8.28-4.37,8.1,8.1,0,0,1-.78-3.64,24.42,24.42,0,0,1,4.28-14.56c1.1-1.6,2.38-3.08,3.61-4.59.87-1.08,1.8-2.12,2.67-3.2a10.81,10.81,0,0,0,.16-12.85c-.81-1.12-1.78-2.13-2.65-3.22-1.3-1.62-2.67-3.21-3.85-4.92a24.29,24.29,0,0,1-4.22-14.58,7.54,7.54,0,0,1,1.31-4.33,7.7,7.7,0,0,1,8.4-3.28,7.3,7.3,0,0,1,5.89,5.79,20.44,20.44,0,0,1,.44,3.3A8.62,8.62,0,0,0,666,137c.75,1,1.56,2,2.35,2.93,1,1.18,2,2.32,2.94,3.52A25.54,25.54,0,0,1,676.94,159.73Z"/><path class="cls-5" d="M717.1,160.27a25,25,0,0,1-5.44,15.86c-1,1.32-2.15,2.55-3.2,3.85-.88,1.08-1.77,2.15-2.55,3.29a8,8,0,0,0-1.47,4.29,18.82,18.82,0,0,1-.17,2.49,8,8,0,0,1-11.75,5.88,7.43,7.43,0,0,1-4.07-6.39,24.06,24.06,0,0,1,3.63-14.33c1.18-1.88,2.62-3.59,4-5.34.94-1.21,2-2.35,2.94-3.53a10.76,10.76,0,0,0,0-12.83c-1-1.33-2.15-2.55-3.19-3.86-1.21-1.52-2.47-3-3.53-4.64a24.11,24.11,0,0,1-3.9-14.26,7.67,7.67,0,0,1,4.18-6.75,8,8,0,0,1,10.77,3.28,8.15,8.15,0,0,1,1,4,10.24,10.24,0,0,0,2.91,7.16c.72.84,1.46,1.68,2.17,2.53s1.63,1.91,2.37,2.91A26.21,26.21,0,0,1,717.1,160.27Z"/><path class="cls-4" d="M453.06,439.93a1.52,1.52,0,0,0,.06.42c-3.73.25-7.47.52-11.21.76q-5.19.33-10.39.62c-15.26.85-30.53.86-45.8.63-7.22-.11-14.44-.42-21.65-.65a7.2,7.2,0,0,1-1.21-.24,3.73,3.73,0,0,1,1.05-.6,3.58,3.58,0,0,1,1.66,0c2.73.75,5.52.6,8.29.6q25.26,0,50.53,0a21.67,21.67,0,0,0,6.21-.52,9.79,9.79,0,0,1,2.49-.15c2.37-.06,4.73-.09,7.1-.13a25.3,25.3,0,0,0,4.14-.44A36.41,36.41,0,0,1,453.06,439.93Z"/><path class="cls-4" d="M346.15,440.63c.35-.2.76-.64,1.05-.57,3.42.82,6.91.52,10.37.65a9.21,9.21,0,0,1,1.66.12,4.27,4.27,0,0,1,1.07.57,1.77,1.77,0,0,1-.4.08A100.43,100.43,0,0,1,346.15,440.63Z"/><path class="cls-4" d="M333.62,439.79c.22-.14.48-.45.67-.41,2.43.56,4.91.3,7.36.54a3.46,3.46,0,0,1,1.08.52,1.8,1.8,0,0,1-.39.08A60.7,60.7,0,0,1,333.62,439.79Z"/><path class="cls-4" d="M323.6,438.94c.22-.14.48-.45.66-.41a40.7,40.7,0,0,0,5.71.54,3.41,3.41,0,0,1,1.07.55,3,3,0,0,1-.77.13C328,439.5,325.82,439.21,323.6,438.94Z"/><path class="cls-4" d="M315.54,438.15l4,0a2.08,2.08,0,0,1,1.46.57A15.79,15.79,0,0,1,315.54,438.15Z"/><path class="cls-3" d="M473.11,438a1.88,1.88,0,0,1,1.38-.63c.92,0,1.83,0,2.74.05A7.85,7.85,0,0,1,473.11,438Z"/><path class="cls-4" d="M454,460.86c.85.77.85.78.06,1.58A1.42,1.42,0,0,1,454,460.86Z"/><path class="cls-6" d="M301.83,74.82a23,23,0,0,1,2.08-1.34,185.38,185.38,0,0,1,46.77-16.19,200.49,200.49,0,0,1,41.9-3.84c5,0,10,.42,15,.67a14.43,14.43,0,0,1,4.51.77,1.75,1.75,0,0,0,.71,1.44c.46.3,1,.56,1.45.82,2.2,1.17,4.49,2.22,6.6,3.54s4.8,2.24,6.83,4a123.5,123.5,0,0,1,14.53,9.68c1.53,1.18,3.26,2.13,4.72,3.38,2,1.72,4.36,3,6.1,5a4.16,4.16,0,0,0,1.28,1,11.6,11.6,0,0,1,2.91,2.35q9,9,18,18a19.85,19.85,0,0,1,1.9,2.2c1.64,2.23,3.47,4.31,5.16,6.51.59.76,1.16,1.55,1.78,2.29,1.68,2,3,4.31,4.6,6.42a77.71,77.71,0,0,1,6.22,9.34,45.69,45.69,0,0,0,3,5,24.11,24.11,0,0,1,2.61,4.74c.77,1.8,2.24,3.19,2.73,5.12,1.48,2.36,2.27,5,3.59,7.48a99.92,99.92,0,0,1,5.46,13c3.43,9.33,4.3,12.79,7,24.33.51,2.15.93,4.32,1.33,6.49s1.17,4.3.92,6.56a18.81,18.81,0,0,1,.85,6.58,3.15,3.15,0,0,0,.23,1.22,9.55,9.55,0,0,1,.54,4.1c0,2,0,3.9,0,5.84a12.09,12.09,0,0,0,.37,2.88c.74,2.75.37,5.52.31,8.29-1,2.54-.63,5.21-.71,7.83-.06,2.22.23,4.46-.68,6.59a2.72,2.72,0,0,0-.13,1.24c.31,3-1,5.72-1,8.65-1.27,4.53-1.88,9.2-3.08,13.76a128.89,128.89,0,0,1-7.13,21.26,5.07,5.07,0,0,0-.34.76c-.85,3.26-3,6-4,9.17a1.74,1.74,0,0,1-2.12.9,12.91,12.91,0,0,0-4.08-.7,6.06,6.06,0,0,1-1.62-.33,16,16,0,0,0-7.44-.25c-2.44.4-4.89.93-7.3,1.52-3.69.92-6.95,2.8-10.27,4.54a5.29,5.29,0,0,0-.65.52c-1.3,1-2.67,2-3.91,3.09s-2.37,2.35-3.56,3.53a17.39,17.39,0,0,0-2.33,2.91,43.86,43.86,0,0,0-5.24,9.89c-1.2,3.39-2.25,6.84-2,10.55.14,2.35,0,4.73.05,7.09a9.69,9.69,0,0,0,.26,2.47c.67,2.39.76,4.94,2.09,7.15a8.59,8.59,0,0,1,.65,2,1.83,1.83,0,0,1-.61,1.87,4.53,4.53,0,0,1-2.13,1.23c-3.47,1-6.95,1.92-10.33,3.17-2.77.34-5.27,1.73-8,2.09-1.65.83-3.61.31-5.24,1.23-1.82.07-3.44,1.15-5.3,1-4.87,1-9.67,2.35-14.68,2.62-.95.05-1.88.62-2.82.62a31.82,31.82,0,0,0-4.5.79,43.53,43.53,0,0,1-4.58.16,2.2,2.2,0,0,0-.82.12c-1.71.79-3.53.65-5.34.66a14.74,14.74,0,0,0-5.35.62,7,7,0,0,1-2.48.2q-18.15,0-36.31,0a7,7,0,0,1-2.48-.23,15.41,15.41,0,0,0-5.35-.59,13.93,13.93,0,0,1-3.73-.23,18,18,0,0,0-5.35-.61,7.44,7.44,0,0,1-2.07-.17,10.07,10.07,0,0,0-4.09-.65c-1.44.12-2.69-.77-4.07-.77a36.27,36.27,0,0,1-6.15-.85c-2.18-.37-4.31-1.12-6.56-1-4.69-1.19-9.43-2.13-14.15-3.19-8.53-1.9-16.84-4.58-25.18-7.16-5.56-1.72-11-3.88-16.4-6a199.14,199.14,0,0,1-19.05-8.36c-1.48-.77-3-1.49-4.49-2.22a1.65,1.65,0,0,0-2.24.42c-.81.77-1.56,1.6-2.4,2.33a6.4,6.4,0,0,1-4.54,1.78c-1,0-2,0-2.92,0-3.33.15-7.33-3.92-7.26-7.33a25.64,25.64,0,0,1,.87-7c.65-.22,1.29-.5,1.95-.66,7.32-1.8,12.23-6.32,15-13.27a24,24,0,0,0,1.55-6.47,69.69,69.69,0,0,0,.22-10c-.22-4.46-.74-8.88-1.31-13.29a317.73,317.73,0,0,1-2.36-35.82q-.33-19,1-38c.49-6.8,1.08-13.59,2.09-20.35.67-4.54,1.18-9.1,1.94-13.63,2.93-17.33,7.16-34.31,14.15-50.5a117.12,117.12,0,0,1,11-20.12,73.76,73.76,0,0,1,17.86-18.55,71.15,71.15,0,0,1,8.28-5.6,8,8,0,0,1-1.07,2.69c-1.87,2.36-2.22,5.36-3.28,8.06a2.24,2.24,0,0,0-.12.82c0,2.5,0,5,0,7.51a5.7,5.7,0,0,0,.37,1.61c1.27,4,3,7.78,6.3,10.59.84.72,1.56,1.58,2.38,2.34a8,8,0,0,0,1.64,1.27,42.38,42.38,0,0,0,4.48,2.22,14,14,0,0,0,6.06,1.24c1.53-.1,3.06,0,4.59,0a9.15,9.15,0,0,0,1.66-.13,27.91,27.91,0,0,0,9.8-4.4,21.07,21.07,0,0,0,6.95-9.18c.33-.91.67-1.82,1.09-2.7a6.24,6.24,0,0,0,.59-2.82c0-2.51,0-5,0-7.51a7,7,0,0,0-.27-2c-1.28-4-2.94-7.75-6.15-10.7-3.54-3.26-2.05-2.29-6.4-4.53-.87-.45-1.74-.87-2.63-1.27a6.77,6.77,0,0,0-1.56-.56q-2.85-.54-5.72-1A1.63,1.63,0,0,1,301.83,74.82Zm168.7,144.73c.42-1,1.46-1.23,2.28-1.69a12.31,12.31,0,0,0,4.43-4.29,22.23,22.23,0,0,0,2.35-5.76,4.37,4.37,0,0,0,.12-2.06,24,24,0,0,0-2.52-7.43,7.9,7.9,0,0,0-2.56-2.7c-3-1.78-6-3.51-9.73-3a12,12,0,0,0-2.84.51,9,9,0,0,1-2,.37c-.81-.54-1.58-1.15-2.43-1.61a22.28,22.28,0,0,0-29,6.57,24,24,0,0,0-4.88,14.38c0,6.67.25,13.35.43,20a29.5,29.5,0,0,0,.41,3.74,24.46,24.46,0,0,0,8.53,15.33,22.06,22.06,0,0,0,30.26-1.37,24.5,24.5,0,0,0,7.22-16.84c.1-2.92-.07-5.84-.09-8.76C470.49,223.16,470.52,221.36,470.53,219.55ZM335.35,194.3c-1.23-.62-2.45-1.28-3.7-1.86a21.1,21.1,0,0,0-17.78-.35A23.37,23.37,0,0,0,301,205.59a22.82,22.82,0,0,0-1.72,8.95q.21,9.79.47,19.59a27.38,27.38,0,0,0,.36,3.73,24.52,24.52,0,0,0,10.16,16.61,21.71,21.71,0,0,0,25.38.16,24.35,24.35,0,0,0,9.62-13.7,26.23,26.23,0,0,0,.92-7.84c-.09-4.17-.13-8.33-.19-12.5.25-.32.44-.76.77-.93.86-.44,1.83-.67,2.66-1.14a5.72,5.72,0,0,0,1.9-1.57,20.26,20.26,0,0,0,3.51-6.54,7.94,7.94,0,0,0,.33-4.07c-.61-2.1-.61-4.45-2.12-6.22-1.81-2.11-3.73-4.11-6.43-5.11-1-.38-2.09-.74-3.12-1.14a5,5,0,0,0-3.65-.08A10.62,10.62,0,0,1,335.35,194.3Zm48.87,120.34c.9-.06,2.3-.06,3.67-.22a42.41,42.41,0,0,0,19.26-7.37,65.61,65.61,0,0,0,14.6-14.16,11.41,11.41,0,0,0,1.4-2.54c1.41-3.42-1.26-8.18-5.59-8.41A6.51,6.51,0,0,0,412,284.2c-.54.62-1.06,1.28-1.58,1.93a56.51,56.51,0,0,1-5.68,6.1A38.62,38.62,0,0,1,394.8,299a26.08,26.08,0,0,1-11.3,2.45,28,28,0,0,1-12.42-3.08,45.43,45.43,0,0,1-13.18-10.06c-.75-.82-1.47-1.67-2.2-2.51a6.53,6.53,0,0,0-11.42,3.32,7.47,7.47,0,0,0,2,5.74A57.64,57.64,0,0,0,367.16,311,41.82,41.82,0,0,0,384.22,314.64Zm14.45,23.3a17.24,17.24,0,0,0,3.38,10.5c1,1.36,1.73,2.88,3.12,3.85a25.62,25.62,0,0,0,6.29,3.17,18.38,18.38,0,0,0,3.21.8,10.06,10.06,0,0,0,5.71-.54,13.22,13.22,0,0,0,8.2-4.49c.46-.51,1-1,1.47-1.47,3.4-3.31,4.49-7.53,4.56-12.07a18.62,18.62,0,0,0-.79-4,13.15,13.15,0,0,0-2.48-5.64c-.78-1-1.56-1.94-2.42-2.83a15.65,15.65,0,0,0-11.17-4.7c-1.38-.05-2.77,0-4.16,0a6.49,6.49,0,0,0-2.8.68c-4.16,1.88-4.77,2.29-8,5.75a8,8,0,0,0-1.31,1.6C399.87,331.44,398.38,334.43,398.67,337.94Z"/><path class="cls-7" d="M213.27,331.24a25.64,25.64,0,0,0-.87,7c-.07,3.41,3.93,7.48,7.26,7.33,1,0,1.94,0,2.92,0a6.4,6.4,0,0,0,4.54-1.78c.84-.73,1.59-1.56,2.4-2.33a1.65,1.65,0,0,1,2.24-.42c1.5.73,3,1.45,4.49,2.22a199.14,199.14,0,0,0,19.05,8.36c5.42,2.13,10.84,4.29,16.4,6,8.34,2.58,16.65,5.26,25.18,7.16,4.72,1.06,9.46,2,14.15,3.19,2.25-.09,4.38.66,6.56,1a36.27,36.27,0,0,0,6.15.85c1.38,0,2.63.89,4.07.77a10.07,10.07,0,0,1,4.09.65,7.44,7.44,0,0,0,2.07.17,18,18,0,0,1,5.35.61,13.93,13.93,0,0,0,3.73.23,15.41,15.41,0,0,1,5.35.59,7,7,0,0,0,2.48.23q18.15,0,36.31,0a7,7,0,0,0,2.48-.2,14.74,14.74,0,0,1,5.35-.62c1.81,0,3.63.13,5.34-.66a2.2,2.2,0,0,1,.82-.12,43.53,43.53,0,0,0,4.58-.16,31.82,31.82,0,0,1,4.5-.79c.94,0,1.87-.57,2.82-.62,5-.27,9.81-1.6,14.68-2.62,1.86.13,3.48-.95,5.3-1,1.63-.92,3.59-.4,5.24-1.23,2.77-.36,5.27-1.75,8-2.09,3.38-1.25,6.86-2.2,10.33-3.17a4.53,4.53,0,0,0,2.13-1.23,1.83,1.83,0,0,0,.61-1.87,8.59,8.59,0,0,0-.65-2c-1.33-2.21-1.42-4.76-2.09-7.15a9.69,9.69,0,0,1-.26-2.47c0-2.36.09-4.74-.05-7.09-.21-3.71.84-7.16,2-10.55a43.86,43.86,0,0,1,5.24-9.89,17.39,17.39,0,0,1,2.33-2.91c1.19-1.18,2.31-2.42,3.56-3.53s2.61-2.06,3.91-3.09a5.29,5.29,0,0,1,.65-.52c3.32-1.74,6.58-3.62,10.27-4.54,2.41-.59,4.86-1.12,7.3-1.52a16,16,0,0,1,7.44.25,6.06,6.06,0,0,0,1.62.33,12.91,12.91,0,0,1,4.08.7,1.74,1.74,0,0,0,2.12-.9c1-3.2,3.11-5.91,4-9.17a5.07,5.07,0,0,1,.34-.76,128.89,128.89,0,0,0,7.13-21.26c1.2-4.56,1.81-9.23,3.08-13.76,0-2.93,1.3-5.69,1-8.65a2.72,2.72,0,0,1,.13-1.24c.91-2.13.62-4.37.68-6.59.08-2.62-.32-5.29.71-7.83.06-2.77.43-5.54-.31-8.29a12.09,12.09,0,0,1-.37-2.88c-.06-1.94,0-3.89,0-5.84a9.55,9.55,0,0,0-.54-4.1,3.15,3.15,0,0,1-.23-1.22,18.81,18.81,0,0,0-.85-6.58c.25-2.26-.53-4.39-.92-6.56s-.82-4.34-1.33-6.49c-2.74-11.54-3.61-15-7-24.33a99.92,99.92,0,0,0-5.46-13c-1.32-2.44-2.11-5.12-3.59-7.48-.49-1.93-2-3.32-2.73-5.12a24.11,24.11,0,0,0-2.61-4.74,45.69,45.69,0,0,1-3-5,77.71,77.71,0,0,0-6.22-9.34c-1.57-2.11-2.92-4.38-4.6-6.42-.62-.74-1.19-1.53-1.78-2.29-1.69-2.2-3.52-4.28-5.16-6.51a19.85,19.85,0,0,0-1.9-2.2q-9-9-18-18a11.6,11.6,0,0,0-2.91-2.35,4.16,4.16,0,0,1-1.28-1c-1.74-2-4.1-3.3-6.1-5-1.46-1.25-3.19-2.2-4.72-3.38a123.5,123.5,0,0,0-14.53-9.68c-2-1.75-4.59-2.58-6.83-4s-4.4-2.37-6.6-3.54c-.49-.26-1-.52-1.45-.82a1.75,1.75,0,0,1-.71-1.44,15.65,15.65,0,0,1,5,.21,120.16,120.16,0,0,1,25.2,5.66A174,174,0,0,1,490.69,85.7a130.61,130.61,0,0,1,26.82,26.15,100,100,0,0,1,17.84,37.4,91.37,91.37,0,0,1,2.18,13.17,642.69,642.69,0,0,1,2.24,73.43c-.24,9.74-.72,19.47-1.14,29.21-.32,7.24-.47,14.47-.3,21.71a61.83,61.83,0,0,0,1.58,12.41,32.67,32.67,0,0,0,3.06,8.18,54.51,54.51,0,0,0,7.67,10.9,41.55,41.55,0,0,0,23.23,13.08,68.38,68.38,0,0,0,15.38,1.1,106.38,106.38,0,0,0,16.6-1.68,3.3,3.3,0,0,1,3,.85,67.33,67.33,0,0,0,5.85,4.71,51.32,51.32,0,0,0,28.51,9.42l3.75.12a1.3,1.3,0,0,1,1.13,1,33.27,33.27,0,0,1,.07,4.57,35.76,35.76,0,0,1-10.37,21.81A27.93,27.93,0,0,1,631.5,378a126.11,126.11,0,0,1-12.35,6.07A351.27,351.27,0,0,1,583.89,397c-18.2,5.71-36.67,10.38-55.32,14.33q-13.26,2.82-26.65,5-14.21,2.37-28.5,4.16c-9.94,1.24-19.92,2.17-29.92,2.94-25,1.91-50.07,1.77-75.13.88-8.35-.3-16.69-.75-25-1.2q-6-.33-12.07-.91c-8.32-.78-16.64-1.53-24.93-2.51-9-1.06-17.93-2.36-26.85-3.84q-18.75-3.09-37.19-7.66a299.61,299.61,0,0,1-41.24-13.36,180.22,180.22,0,0,1-26.45-13.29,103,103,0,0,1-15.4-11.44,62.68,62.68,0,0,1-8.18-8.9,38.24,38.24,0,0,1-5.73-10.61,25.81,25.81,0,0,1,.28-17.59A14.66,14.66,0,0,1,152.5,325a27.4,27.4,0,0,1,9.1-2.87,51.55,51.55,0,0,1,16.21.44A75.32,75.32,0,0,1,190.68,326l8.26,2.93a33.28,33.28,0,0,0,13.51,2.17A4,4,0,0,1,213.27,331.24Zm-16.06,42.63c.36,0,1.33,0,2.3,0a5.37,5.37,0,0,0,1.2-.33,17.34,17.34,0,0,0,10.1-7.48c1.57-2.45,2-5.12,2.43-7.83a9.72,9.72,0,0,0-.21-3.72,23,23,0,0,0-1.94-5.46,18,18,0,0,0-3.08-3.36c-.19-.21-.41-.38-.59-.6a12.62,12.62,0,0,0-5.19-3.35,24.75,24.75,0,0,0-3.21-.82,10.59,10.59,0,0,0-6.13.15c-4.62,1.54-4.64,1.48-8,4.85-.29.3-.57.61-.88.89a8.33,8.33,0,0,0-2.14,3c-.48,1.15-.92,2.32-1.37,3.48a10.87,10.87,0,0,0,0,7.72c.32.92.64,1.84.9,2.77a11.54,11.54,0,0,0,3.56,5.52C188.25,372.21,192,374.3,197.21,373.87Z"/><path class="cls-8" d="M662.69,230h49.25c1.25,0,2.51,0,3.76,0,1.77,0,2.14.43,2.18,2.25,0,1,0,1.94,0,2.92,0,19.34,0,38.68,0,58a36,36,0,0,1-5.11,19.09,37.34,37.34,0,0,1-32.23,18.26c-12,0-23.93,0-35.89,0a37.15,37.15,0,0,1-36.36-28.7,40.52,40.52,0,0,1-.9-9.11c0-3.9,0-7.79,0-11.69V236c0-1.11,0-2.23,0-3.34,0-2.36.27-2.59,2.64-2.63,1.39,0,2.79,0,4.18,0Z"/><path class="cls-9" d="M301.83,74.82a1.63,1.63,0,0,0,1.49,1.68q2.87.42,5.72,1a6.77,6.77,0,0,1,1.56.56c.89.4,1.76.82,2.63,1.27,4.35,2.24,2.86,1.27,6.4,4.53,3.21,3,4.87,6.7,6.15,10.7a7,7,0,0,1,.27,2c0,2.5,0,5,0,7.51a6.24,6.24,0,0,1-.59,2.82c-.42.88-.76,1.79-1.09,2.7a21.07,21.07,0,0,1-6.95,9.18,27.91,27.91,0,0,1-9.8,4.4,9.15,9.15,0,0,1-1.66.13c-1.53,0-3.06-.07-4.59,0a14,14,0,0,1-6.06-1.24,42.38,42.38,0,0,1-4.48-2.22,8,8,0,0,1-1.64-1.27c-.82-.76-1.54-1.62-2.38-2.34-3.32-2.81-5-6.57-6.3-10.59a5.7,5.7,0,0,1-.37-1.61c0-2.5,0-5,0-7.51a2.24,2.24,0,0,1,.12-.82c1.06-2.7,1.41-5.7,3.28-8.06A8,8,0,0,0,284.62,85a2.89,2.89,0,0,1,.53-.62c5.07-3.25,10.22-6.37,15.51-9.26A4.46,4.46,0,0,1,301.83,74.82Z"/><path class="cls-10" d="M733.31,270.21V256.05a20.82,20.82,0,0,1,.1-2.5,1,1,0,0,1,.78-.86,8.31,8.31,0,0,1,1.22-.16c4,0,8.06-.05,12.08,0a19.94,19.94,0,0,1,5,.56c6.51,1.84,11,6,12.69,12.57A17.57,17.57,0,0,1,749.8,288c-1.25.09-2.5.1-3.75.1-3.33,0-6.66,0-10,0-.55,0-1.1,0-1.65-.07a1.27,1.27,0,0,1-1-1.13c0-1-.07-1.94-.07-2.91Z"/><path class="cls-11" d="M346,220.59c.06,4.17.1,8.33.19,12.5a26.23,26.23,0,0,1-.92,7.84,24.35,24.35,0,0,1-9.62,13.7,21.71,21.71,0,0,1-25.38-.16,24.52,24.52,0,0,1-10.16-16.61,27.38,27.38,0,0,1-.36-3.73q-.27-9.8-.47-19.59a22.82,22.82,0,0,1,1.72-8.95,23.37,23.37,0,0,1,12.87-13.5,21.1,21.1,0,0,1,17.78.35c1.25.58,2.47,1.24,3.7,1.86-.1.39-.07.93-.32,1.15-.83.73-1.81,1.29-2.63,2a13.23,13.23,0,0,0-2.63,16.71c2.85,4.87,7.33,7,12.94,6.72C343.81,220.85,344.87,220.31,346,220.59Z"/><path class="cls-11" d="M470.53,219.55c0,1.81,0,3.61,0,5.42,0,2.92.19,5.84.09,8.76a24.5,24.5,0,0,1-7.22,16.84,22.06,22.06,0,0,1-30.26,1.37,24.46,24.46,0,0,1-8.53-15.33,29.5,29.5,0,0,1-.41-3.74c-.18-6.67-.39-13.35-.43-20a24,24,0,0,1,4.88-14.38,22.28,22.28,0,0,1,29-6.57c.85.46,1.62,1.07,2.43,1.61-.54,1.05-1.67,1.39-2.53,2.06A13.69,13.69,0,0,0,453,210.05a13.44,13.44,0,0,0,12.66,9.5c1,0,1.92-.16,2.88-.17C469.18,219.38,469.86,219.49,470.53,219.55Z"/><path class="cls-12" d="M384.22,314.64A41.82,41.82,0,0,1,367.16,311a57.64,57.64,0,0,1-20.93-16.14,7.47,7.47,0,0,1-2-5.74,6.53,6.53,0,0,1,11.42-3.32c.73.84,1.45,1.69,2.2,2.51a45.43,45.43,0,0,0,13.18,10.06,28,28,0,0,0,12.42,3.08A26.08,26.08,0,0,0,394.8,299a38.62,38.62,0,0,0,9.93-6.79,56.51,56.51,0,0,0,5.68-6.1c.52-.65,1-1.31,1.58-1.93a6.51,6.51,0,0,1,5.57-2.26c4.33.23,7,5,5.59,8.41a11.41,11.41,0,0,1-1.4,2.54,65.61,65.61,0,0,1-14.6,14.16,42.41,42.41,0,0,1-19.26,7.37C386.52,314.58,385.12,314.58,384.22,314.64Z"/><path class="cls-9" d="M398.67,337.94c-.29-3.51,1.2-6.5,2.79-9.44a8,8,0,0,1,1.31-1.6c3.25-3.46,3.86-3.87,8-5.75a6.49,6.49,0,0,1,2.8-.68c1.39,0,2.78,0,4.16,0a15.65,15.65,0,0,1,11.17,4.7c.86.89,1.64,1.86,2.42,2.83a13.15,13.15,0,0,1,2.48,5.64,18.62,18.62,0,0,1,.79,4c-.07,4.54-1.16,8.76-4.56,12.07-.5.48-1,1-1.47,1.47a13.22,13.22,0,0,1-8.2,4.49,10.06,10.06,0,0,1-5.71.54,18.38,18.38,0,0,1-3.21-.8,25.62,25.62,0,0,1-6.29-3.17c-1.39-1-2.16-2.49-3.12-3.85a17.24,17.24,0,0,1-3.38-10.5Z"/><path class="cls-13" d="M346,220.59c-1.13-.28-2.19.26-3.29.31-5.61.27-10.09-1.85-12.94-6.72a13.23,13.23,0,0,1,2.63-16.71c.82-.73,1.8-1.29,2.63-2,.25-.22.22-.76.32-1.15a10.62,10.62,0,0,0,4.5-.51,5,5,0,0,1,3.65.08c1,.4,2.08.76,3.12,1.14,2.7,1,4.62,3,6.43,5.11,1.51,1.77,1.51,4.12,2.12,6.22a7.94,7.94,0,0,1-.33,4.07,20.26,20.26,0,0,1-3.51,6.54,5.72,5.72,0,0,1-1.9,1.57c-.83.47-1.8.7-2.66,1.14C346.44,219.83,346.25,220.27,346,220.59Z"/><path class="cls-13" d="M470.53,219.55c-.67-.06-1.35-.17-2-.17-1,0-1.92.14-2.88.17a13.44,13.44,0,0,1-12.66-9.5,13.69,13.69,0,0,1,4.54-14.48c.86-.67,2-1,2.53-2.06a9,9,0,0,0,2-.37,12,12,0,0,1,2.84-.51c3.73-.52,6.75,1.21,9.73,3a7.9,7.9,0,0,1,2.56,2.7,24,24,0,0,1,2.52,7.43,4.37,4.37,0,0,1-.12,2.06,22.23,22.23,0,0,1-2.35,5.76,12.31,12.31,0,0,1-4.43,4.29C472,218.32,471,218.53,470.53,219.55Z"/><path class="cls-6" d="M197.21,373.87c-5.25.43-9-1.66-12.27-4.54a11.54,11.54,0,0,1-3.56-5.52c-.26-.93-.58-1.85-.9-2.77a10.87,10.87,0,0,1,0-7.72c.45-1.16.89-2.33,1.37-3.48a8.33,8.33,0,0,1,2.14-3c.31-.28.59-.59.88-.89,3.35-3.37,3.37-3.31,8-4.85a10.59,10.59,0,0,1,6.13-.15,24.75,24.75,0,0,1,3.21.82,12.62,12.62,0,0,1,5.19,3.35c.18.22.4.39.59.6a18,18,0,0,1,3.08,3.36A23,23,0,0,1,213,354.5a9.72,9.72,0,0,1,.21,3.72c-.41,2.71-.86,5.38-2.43,7.83a17.34,17.34,0,0,1-10.1,7.48,5.37,5.37,0,0,1-1.2.33C198.54,373.91,197.57,373.87,197.21,373.87Z"/></svg>
